<svg width="1140" height="640" viewBox="0 0 1140 640" fill="none" xmlns="http://www.w3.org/2000/svg">
<rect width="1140" height="640" fill="white"/>
<g clip-path="url(#clip0_145_3)">
<mask id="mask0_145_3" style="mask-type:luminance" maskUnits="userSpaceOnUse" x="19" y="90" width="929" height="460">
<path d="M947.845 90H19.938V550H947.845V90Z" fill="white"/>
</mask>
<g mask="url(#mask0_145_3)">
<path d="M469.457 480.42C569.673 480.42 650.915 404.271 650.915 310.336C650.915 216.401 569.673 140.252 469.457 140.252C369.241 140.252 288 216.401 288 310.336C288 404.271 369.241 480.42 469.457 480.42Z" fill="url(#paint0_linear_145_3)"/>
</g>
</g>
<path d="M476.75 248.45C474.183 248.45 471.967 247.95 470.1 246.95C468.267 245.917 466.833 244.467 465.8 242.6C464.8 240.733 464.3 238.5 464.3 235.9C464.3 233.367 464.8 231.167 465.8 229.3C466.8 227.4 468.167 225.917 469.9 224.85C471.667 223.783 473.7 223.25 476 223.25C477.633 223.25 479.1 223.533 480.4 224.1C481.7 224.633 482.8 225.417 483.7 226.45C484.633 227.483 485.333 228.733 485.8 230.2C486.3 231.667 486.55 233.317 486.55 235.15C486.55 235.683 486.4 236.083 486.1 236.35C485.8 236.583 485.367 236.7 484.8 236.7H467.4V234.05H483.85L483.05 234.7C483.05 232.9 482.783 231.383 482.25 230.15C481.717 228.883 480.933 227.917 479.9 227.25C478.9 226.583 477.633 226.25 476.1 226.25C474.4 226.25 472.95 226.65 471.75 227.45C470.583 228.217 469.7 229.3 469.1 230.7C468.5 232.067 468.2 233.667 468.2 235.5V235.8C468.2 238.867 468.933 241.2 470.4 242.8C471.9 244.4 474.017 245.2 476.75 245.2C477.883 245.2 479 245.05 480.1 244.75C481.233 244.45 482.333 243.95 483.4 243.25C483.867 242.95 484.283 242.817 484.65 242.85C485.05 242.85 485.367 242.967 485.6 243.2C485.833 243.4 485.983 243.667 486.05 244C486.15 244.3 486.117 244.633 485.95 245C485.817 245.367 485.533 245.683 485.1 245.95C484 246.75 482.7 247.367 481.2 247.8C479.7 248.233 478.217 248.45 476.75 248.45ZM494.461 248.35C493.795 248.35 493.278 248.167 492.911 247.8C492.578 247.433 492.411 246.917 492.411 246.25V225.4C492.411 224.733 492.578 224.233 492.911 223.9C493.245 223.533 493.728 223.35 494.361 223.35C494.995 223.35 495.478 223.533 495.811 223.9C496.178 224.233 496.361 224.733 496.361 225.4V229.45H495.861C496.395 227.483 497.411 225.967 498.911 224.9C500.411 223.833 502.261 223.267 504.461 223.2C504.961 223.167 505.361 223.283 505.661 223.55C505.961 223.783 506.128 224.2 506.161 224.8C506.195 225.367 506.061 225.817 505.761 226.15C505.461 226.483 504.995 226.683 504.361 226.75L503.561 226.85C501.295 227.05 499.545 227.783 498.311 229.05C497.111 230.283 496.511 231.983 496.511 234.15V246.25C496.511 246.917 496.328 247.433 495.961 247.8C495.628 248.167 495.128 248.35 494.461 248.35ZM512.381 248.35C511.715 248.35 511.198 248.167 510.831 247.8C510.498 247.433 510.331 246.917 510.331 246.25V225.4C510.331 224.733 510.498 224.233 510.831 223.9C511.165 223.533 511.648 223.35 512.281 223.35C512.915 223.35 513.398 223.533 513.731 223.9C514.098 224.233 514.281 224.733 514.281 225.4V229.45H513.781C514.315 227.483 515.331 225.967 516.831 224.9C518.331 223.833 520.181 223.267 522.381 223.2C522.881 223.167 523.281 223.283 523.581 223.55C523.881 223.783 524.048 224.2 524.081 224.8C524.115 225.367 523.981 225.817 523.681 226.15C523.381 226.483 522.915 226.683 522.281 226.75L521.481 226.85C519.215 227.05 517.465 227.783 516.231 229.05C515.031 230.283 514.431 231.983 514.431 234.15V246.25C514.431 246.917 514.248 247.433 513.881 247.8C513.548 248.167 513.048 248.35 512.381 248.35ZM538.058 248.45C535.692 248.45 533.642 247.933 531.908 246.9C530.175 245.867 528.825 244.417 527.858 242.55C526.925 240.65 526.458 238.417 526.458 235.85C526.458 233.917 526.725 232.183 527.258 230.65C527.792 229.083 528.575 227.75 529.608 226.65C530.642 225.55 531.858 224.717 533.258 224.15C534.692 223.55 536.292 223.25 538.058 223.25C540.425 223.25 542.475 223.767 544.208 224.8C545.942 225.833 547.275 227.3 548.208 229.2C549.175 231.067 549.658 233.283 549.658 235.85C549.658 237.783 549.392 239.517 548.858 241.05C548.325 242.583 547.542 243.917 546.508 245.05C545.475 246.15 544.242 247 542.808 247.6C541.408 248.167 539.825 248.45 538.058 248.45ZM538.058 245.2C539.558 245.2 540.875 244.833 542.008 244.1C543.142 243.367 544.008 242.3 544.608 240.9C545.242 239.5 545.558 237.817 545.558 235.85C545.558 232.817 544.875 230.5 543.508 228.9C542.175 227.3 540.358 226.5 538.058 226.5C536.525 226.5 535.192 226.867 534.058 227.6C532.958 228.3 532.092 229.35 531.458 230.75C530.858 232.117 530.558 233.817 530.558 235.85C530.558 238.85 531.242 241.167 532.608 242.8C533.975 244.4 535.792 245.2 538.058 245.2ZM557.791 248.35C557.125 248.35 556.608 248.167 556.241 247.8C555.908 247.433 555.741 246.917 555.741 246.25V225.4C555.741 224.733 555.908 224.233 556.241 223.9C556.575 223.533 557.058 223.35 557.691 223.35C558.325 223.35 558.808 223.533 559.141 223.9C559.508 224.233 559.691 224.733 559.691 225.4V229.45H559.191C559.725 227.483 560.741 225.967 562.241 224.9C563.741 223.833 565.591 223.267 567.791 223.2C568.291 223.167 568.691 223.283 568.991 223.55C569.291 223.783 569.458 224.2 569.491 224.8C569.525 225.367 569.391 225.817 569.091 226.15C568.791 226.483 568.325 226.683 567.691 226.75L566.891 226.85C564.625 227.05 562.875 227.783 561.641 229.05C560.441 230.283 559.841 231.983 559.841 234.15V246.25C559.841 246.917 559.658 247.433 559.291 247.8C558.958 248.167 558.458 248.35 557.791 248.35Z" fill="black"/>
<path d="M470.1 246.95L469.609 247.821L469.618 247.826L469.628 247.831L470.1 246.95ZM465.8 242.6L464.918 243.072L464.925 243.084L465.8 242.6ZM465.8 229.3L466.682 229.772L466.685 229.766L465.8 229.3ZM469.9 224.85L469.383 223.994L469.376 223.998L469.9 224.85ZM480.4 224.1L480 225.017L480.01 225.021L480.02 225.025L480.4 224.1ZM483.7 226.45L482.946 227.107L482.952 227.114L482.958 227.12L483.7 226.45ZM485.8 230.2L484.847 230.503L484.85 230.513L484.853 230.523L485.8 230.2ZM486.1 236.35L486.714 237.139L486.74 237.119L486.764 237.097L486.1 236.35ZM467.4 236.7H466.4V237.7H467.4V236.7ZM467.4 234.05V233.05H466.4V234.05H467.4ZM483.85 234.05L484.481 234.826L486.667 233.05H483.85V234.05ZM483.05 234.7H482.05V236.801L483.681 235.476L483.05 234.7ZM482.25 230.15L481.328 230.538L481.332 230.547L482.25 230.15ZM479.9 227.25L479.345 228.082L479.352 228.086L479.358 228.09L479.9 227.25ZM471.75 227.45L472.299 228.286L472.305 228.282L471.75 227.45ZM469.1 230.7L470.016 231.102L470.019 231.094L469.1 230.7ZM470.4 242.8L469.663 243.476L469.67 243.484L470.4 242.8ZM480.1 244.75L479.844 243.783L479.837 243.785L480.1 244.75ZM483.4 243.25L482.859 242.409L482.851 242.414L483.4 243.25ZM484.65 242.85L484.559 243.846L484.605 243.85H484.65V242.85ZM485.6 243.2L484.893 243.907L484.92 243.934L484.949 243.959L485.6 243.2ZM486.05 244L485.069 244.196L485.082 244.257L485.101 244.316L486.05 244ZM485.95 245L485.04 244.586L485.024 244.622L485.01 244.658L485.95 245ZM485.1 245.95L484.576 245.098L484.543 245.119L484.512 245.141L485.1 245.95ZM481.2 247.8L480.922 246.839L480.922 246.839L481.2 247.8ZM476.75 247.45C474.313 247.45 472.266 246.976 470.572 246.069L469.628 247.831C471.667 248.924 474.053 249.45 476.75 249.45V247.45ZM470.591 246.079C468.921 245.138 467.62 243.823 466.675 242.116L464.925 243.084C466.047 245.111 467.612 246.696 469.609 247.821L470.591 246.079ZM466.681 242.128C465.775 240.436 465.3 238.372 465.3 235.9H463.3C463.3 238.628 463.825 241.031 464.919 243.072L466.681 242.128ZM465.3 235.9C465.3 233.499 465.773 231.468 466.681 229.772L464.919 228.828C463.827 230.866 463.3 233.234 463.3 235.9H465.3ZM466.685 229.766C467.606 228.015 468.852 226.669 470.424 225.702L469.376 223.998C467.481 225.164 465.994 226.785 464.915 228.834L466.685 229.766ZM470.417 225.706C472.01 224.744 473.861 224.25 476 224.25V222.25C473.539 222.25 471.323 222.823 469.383 223.994L470.417 225.706ZM476 224.25C477.517 224.25 478.844 224.513 480 225.017L480.8 223.183C479.356 222.554 477.75 222.25 476 222.25V224.25ZM480.02 225.025C481.18 225.501 482.151 226.194 482.946 227.107L484.454 225.793C483.449 224.639 482.22 223.766 480.78 223.175L480.02 225.025ZM482.958 227.12C483.786 228.037 484.419 229.158 484.847 230.503L486.753 229.897C486.248 228.309 485.481 226.93 484.442 225.78L482.958 227.12ZM484.853 230.523C485.312 231.868 485.55 233.407 485.55 235.15H487.55C487.55 233.226 487.288 231.465 486.747 229.877L484.853 230.523ZM485.55 235.15C485.55 235.497 485.458 235.583 485.436 235.603L486.764 237.097C487.342 236.584 487.55 235.87 487.55 235.15H485.55ZM485.486 235.561C485.429 235.605 485.249 235.7 484.8 235.7V237.7C485.485 237.7 486.171 237.562 486.714 237.139L485.486 235.561ZM484.8 235.7H467.4V237.7H484.8V235.7ZM468.4 236.7V234.05H466.4V236.7H468.4ZM467.4 235.05H483.85V233.05H467.4V235.05ZM483.219 233.274L482.419 233.924L483.681 235.476L484.481 234.826L483.219 233.274ZM484.05 234.7C484.05 232.807 483.77 231.147 483.168 229.753L481.332 230.547C481.796 231.62 482.05 232.993 482.05 234.7H484.05ZM483.172 229.762C482.57 228.332 481.664 227.198 480.442 226.41L479.358 228.09C480.203 228.635 480.864 229.434 481.328 230.538L483.172 229.762ZM480.455 226.418C479.251 225.615 477.777 225.25 476.1 225.25V227.25C477.49 227.25 478.549 227.552 479.345 228.082L480.455 226.418ZM476.1 225.25C474.239 225.25 472.587 225.69 471.195 226.618L472.305 228.282C473.313 227.61 474.561 227.25 476.1 227.25V225.25ZM471.201 226.614C469.855 227.499 468.851 228.743 468.181 230.306L470.019 231.094C470.549 229.857 471.311 228.935 472.299 228.286L471.201 226.614ZM468.184 230.298C467.518 231.817 467.2 233.559 467.2 235.5H469.2C469.2 233.774 469.482 232.316 470.016 231.102L468.184 230.298ZM467.2 235.5V235.8H469.2V235.5H467.2ZM467.2 235.8C467.2 239.014 467.968 241.627 469.663 243.476L471.137 242.124C469.898 240.773 469.2 238.72 469.2 235.8H467.2ZM469.67 243.484C471.404 245.333 473.813 246.2 476.75 246.2V244.2C474.22 244.2 472.396 243.467 471.13 242.116L469.67 243.484ZM476.75 246.2C477.973 246.2 479.178 246.038 480.363 245.715L479.837 243.785C478.822 244.062 477.794 244.2 476.75 244.2V246.2ZM480.356 245.717C481.602 245.387 482.8 244.84 483.949 244.086L482.851 242.414C481.867 243.06 480.865 243.513 479.844 243.783L480.356 245.717ZM483.941 244.091C484.311 243.853 484.502 243.841 484.559 243.846L484.741 241.854C484.065 241.793 483.423 242.047 482.859 242.409L483.941 244.091ZM484.65 243.85C484.845 243.85 484.886 243.9 484.893 243.907L486.307 242.493C485.848 242.033 485.255 241.85 484.65 241.85V243.85ZM484.949 243.959C484.995 243.998 485.042 244.057 485.069 244.196L487.031 243.804C486.925 243.276 486.672 242.802 486.251 242.441L484.949 243.959ZM485.101 244.316C485.101 244.316 485.132 244.384 485.04 244.586L486.86 245.414C487.102 244.883 487.199 244.284 486.999 243.684L485.101 244.316ZM485.01 244.658C484.975 244.756 484.876 244.914 484.576 245.098L485.624 246.802C486.191 246.453 486.659 245.977 486.89 245.342L485.01 244.658ZM484.512 245.141C483.519 245.864 482.327 246.433 480.922 246.839L481.478 248.761C483.073 248.3 484.481 247.636 485.688 246.759L484.512 245.141ZM480.922 246.839C479.507 247.248 478.117 247.45 476.75 247.45V249.45C478.316 249.45 479.893 249.218 481.478 248.761L480.922 246.839ZM492.911 247.8L492.171 248.473L492.187 248.49L492.204 248.507L492.911 247.8ZM492.911 223.9L493.618 224.607L493.635 224.59L493.651 224.573L492.911 223.9ZM495.811 223.9L495.071 224.573L495.103 224.608L495.139 224.64L495.811 223.9ZM496.361 229.45V230.45H497.361V229.45H496.361ZM495.861 229.45L494.896 229.188L494.554 230.45H495.861V229.45ZM504.461 223.2L504.492 224.2L504.51 224.199L504.528 224.198L504.461 223.2ZM505.661 223.55L504.997 224.297L505.021 224.319L505.047 224.339L505.661 223.55ZM506.161 224.8L505.163 224.855L505.163 224.859L506.161 224.8ZM505.761 226.15L506.505 226.819L506.505 226.819L505.761 226.15ZM504.361 226.75L504.257 225.755L504.247 225.757L504.237 225.758L504.361 226.75ZM503.561 226.85L503.649 227.846L503.667 227.845L503.685 227.842L503.561 226.85ZM498.311 229.05L497.595 228.352L497.595 228.353L498.311 229.05ZM495.961 247.8L495.254 247.093L495.237 247.11L495.221 247.127L495.961 247.8ZM494.461 247.35C493.981 247.35 493.748 247.223 493.618 247.093L492.204 248.507C492.808 249.111 493.609 249.35 494.461 249.35V247.35ZM493.651 247.127C493.536 247 493.411 246.755 493.411 246.25H491.411C491.411 247.078 491.62 247.866 492.171 248.473L493.651 247.127ZM493.411 246.25V225.4H491.411V246.25H493.411ZM493.411 225.4C493.411 224.887 493.539 224.687 493.618 224.607L492.204 223.193C491.617 223.78 491.411 224.579 491.411 225.4H493.411ZM493.651 224.573C493.745 224.469 493.926 224.35 494.361 224.35V222.35C493.53 222.35 492.744 222.598 492.171 223.227L493.651 224.573ZM494.361 224.35C494.796 224.35 494.977 224.469 495.071 224.573L496.551 223.227C495.979 222.598 495.193 222.35 494.361 222.35V224.35ZM495.139 224.64C495.232 224.725 495.361 224.913 495.361 225.4H497.361C497.361 224.553 497.124 223.742 496.484 223.16L495.139 224.64ZM495.361 225.4V229.45H497.361V225.4H495.361ZM496.361 228.45H495.861V230.45H496.361V228.45ZM496.826 229.712C497.306 227.943 498.2 226.633 499.491 225.715L498.332 224.085C496.623 225.3 495.483 227.024 494.896 229.188L496.826 229.712ZM499.491 225.715C500.801 224.783 502.45 224.261 504.492 224.2L504.431 222.2C502.073 222.272 500.022 222.883 498.332 224.085L499.491 225.715ZM504.528 224.198C504.831 224.178 504.944 224.251 504.997 224.297L506.326 222.803C505.778 222.316 505.092 222.156 504.395 222.202L504.528 224.198ZM505.047 224.339C505.014 224.314 505.136 224.378 505.163 224.855L507.16 224.745C507.12 224.022 506.908 223.253 506.275 222.761L505.047 224.339ZM505.163 224.859C505.185 225.233 505.095 225.396 505.018 225.481L506.505 226.819C507.028 226.237 507.204 225.5 507.16 224.741L505.163 224.859ZM505.018 225.481C504.941 225.566 504.747 225.704 504.257 225.755L504.466 227.745C505.243 227.663 505.981 227.4 506.505 226.819L505.018 225.481ZM504.237 225.758L503.437 225.858L503.685 227.842L504.485 227.742L504.237 225.758ZM503.473 225.854C501.038 226.069 499.038 226.87 497.595 228.352L499.028 229.748C500.051 228.697 501.551 228.031 503.649 227.846L503.473 225.854ZM497.595 228.353C496.169 229.818 495.511 231.794 495.511 234.15H497.511C497.511 232.173 498.054 230.749 499.028 229.747L497.595 228.353ZM495.511 234.15V246.25H497.511V234.15H495.511ZM495.511 246.25C495.511 246.731 495.384 246.963 495.254 247.093L496.668 248.507C497.272 247.903 497.511 247.103 497.511 246.25H495.511ZM495.221 247.127C495.137 247.221 494.948 247.35 494.461 247.35V249.35C495.308 249.35 496.119 249.113 496.701 248.473L495.221 247.127ZM510.831 247.8L510.091 248.473L510.107 248.49L510.124 248.507L510.831 247.8ZM510.831 223.9L511.538 224.607L511.555 224.59L511.571 224.573L510.831 223.9ZM513.731 223.9L512.991 224.573L513.023 224.608L513.059 224.64L513.731 223.9ZM514.281 229.45V230.45H515.281V229.45H514.281ZM513.781 229.45L512.816 229.188L512.474 230.45H513.781V229.45ZM522.381 223.2L522.412 224.2L522.43 224.199L522.448 224.198L522.381 223.2ZM523.581 223.55L522.917 224.297L522.941 224.319L522.967 224.339L523.581 223.55ZM524.081 224.8L523.083 224.855L523.083 224.859L524.081 224.8ZM523.681 226.15L524.425 226.819L524.425 226.819L523.681 226.15ZM522.281 226.75L522.177 225.755L522.167 225.757L522.157 225.758L522.281 226.75ZM521.481 226.85L521.569 227.846L521.587 227.845L521.605 227.842L521.481 226.85ZM516.231 229.05L515.515 228.352L515.515 228.353L516.231 229.05ZM513.881 247.8L513.174 247.093L513.157 247.11L513.141 247.127L513.881 247.8ZM512.381 247.35C511.901 247.35 511.668 247.223 511.538 247.093L510.124 248.507C510.728 249.111 511.529 249.35 512.381 249.35V247.35ZM511.571 247.127C511.456 247 511.331 246.755 511.331 246.25H509.331C509.331 247.078 509.54 247.866 510.091 248.473L511.571 247.127ZM511.331 246.25V225.4H509.331V246.25H511.331ZM511.331 225.4C511.331 224.887 511.459 224.687 511.538 224.607L510.124 223.193C509.537 223.78 509.331 224.579 509.331 225.4H511.331ZM511.571 224.573C511.665 224.469 511.846 224.35 512.281 224.35V222.35C511.45 222.35 510.664 222.598 510.091 223.227L511.571 224.573ZM512.281 224.35C512.716 224.35 512.897 224.469 512.991 224.573L514.471 223.227C513.899 222.598 513.113 222.35 512.281 222.35V224.35ZM513.059 224.64C513.152 224.725 513.281 224.913 513.281 225.4H515.281C515.281 224.553 515.044 223.742 514.404 223.16L513.059 224.64ZM513.281 225.4V229.45H515.281V225.4H513.281ZM514.281 228.45H513.781V230.45H514.281V228.45ZM514.746 229.712C515.226 227.943 516.12 226.633 517.411 225.715L516.252 224.085C514.543 225.3 513.403 227.024 512.816 229.188L514.746 229.712ZM517.411 225.715C518.721 224.783 520.37 224.261 522.412 224.2L522.351 222.2C519.993 222.272 517.942 222.883 516.252 224.085L517.411 225.715ZM522.448 224.198C522.751 224.178 522.864 224.251 522.917 224.297L524.246 222.803C523.698 222.316 523.012 222.156 522.315 222.202L522.448 224.198ZM522.967 224.339C522.934 224.314 523.056 224.378 523.083 224.855L525.08 224.745C525.04 224.022 524.828 223.253 524.195 222.761L522.967 224.339ZM523.083 224.859C523.105 225.233 523.015 225.396 522.938 225.481L524.425 226.819C524.948 226.237 525.124 225.5 525.08 224.741L523.083 224.859ZM522.938 225.481C522.861 225.566 522.667 225.704 522.177 225.755L522.386 227.745C523.162 227.663 523.901 227.4 524.425 226.819L522.938 225.481ZM522.157 225.758L521.357 225.858L521.605 227.842L522.405 227.742L522.157 225.758ZM521.393 225.854C518.958 226.069 516.958 226.87 515.515 228.352L516.948 229.748C517.971 228.697 519.471 228.031 521.569 227.846L521.393 225.854ZM515.515 228.353C514.089 229.818 513.431 231.794 513.431 234.15H515.431C515.431 232.173 515.974 230.749 516.948 229.747L515.515 228.353ZM513.431 234.15V246.25H515.431V234.15H513.431ZM513.431 246.25C513.431 246.731 513.304 246.963 513.174 247.093L514.588 248.507C515.192 247.903 515.431 247.103 515.431 246.25H513.431ZM513.141 247.127C513.057 247.221 512.868 247.35 512.381 247.35V249.35C513.228 249.35 514.039 249.113 514.621 248.473L513.141 247.127ZM531.908 246.9L531.396 247.759L531.396 247.759L531.908 246.9ZM527.858 242.55L526.961 242.991L526.965 243L526.97 243.01L527.858 242.55ZM527.258 230.65L528.203 230.979L528.205 230.972L527.258 230.65ZM529.608 226.65L530.337 227.335L530.337 227.335L529.608 226.65ZM533.258 224.15L533.633 225.077L533.644 225.072L533.258 224.15ZM544.208 224.8L543.696 225.659L543.696 225.659L544.208 224.8ZM548.208 229.2L547.311 229.641L547.315 229.65L547.32 229.66L548.208 229.2ZM548.858 241.05L547.914 240.721L547.914 240.721L548.858 241.05ZM546.508 245.05L547.237 245.735L547.242 245.729L547.247 245.724L546.508 245.05ZM542.808 247.6L543.183 248.527L543.194 248.522L542.808 247.6ZM544.608 240.9L543.697 240.488L543.693 240.497L543.689 240.506L544.608 240.9ZM543.508 228.9L542.74 229.54L542.748 229.549L543.508 228.9ZM534.058 227.6L534.595 228.444L534.601 228.44L534.058 227.6ZM531.458 230.75L530.547 230.338L530.543 230.348L531.458 230.75ZM532.608 242.8L531.841 243.442L531.848 243.449L532.608 242.8ZM538.058 247.45C535.84 247.45 533.974 246.967 532.42 246.041L531.396 247.759C533.309 248.899 535.543 249.45 538.058 249.45V247.45ZM532.42 246.041C530.854 245.107 529.631 243.799 528.746 242.09L526.97 243.01C528.019 245.035 529.496 246.626 531.396 247.759L532.42 246.041ZM528.756 242.109C527.903 240.372 527.458 238.296 527.458 235.85H525.458C525.458 238.538 525.947 240.928 526.961 242.991L528.756 242.109ZM527.458 235.85C527.458 234.008 527.712 232.388 528.203 230.979L526.314 230.321C525.737 231.978 525.458 233.826 525.458 235.85H527.458ZM528.205 230.972C528.697 229.527 529.41 228.321 530.337 227.335L528.879 225.965C527.739 227.179 526.886 228.639 526.312 230.328L528.205 230.972ZM530.337 227.335C531.271 226.34 532.367 225.589 533.633 225.077L532.883 223.223C531.349 223.844 530.012 224.76 528.879 225.965L530.337 227.335ZM533.644 225.072C534.94 224.53 536.406 224.25 538.058 224.25V222.25C536.177 222.25 534.443 222.57 532.872 223.228L533.644 225.072ZM538.058 224.25C540.276 224.25 542.143 224.733 543.696 225.659L544.72 223.941C542.807 222.801 540.574 222.25 538.058 222.25V224.25ZM543.696 225.659C545.255 226.588 546.458 227.906 547.311 229.641L549.106 228.759C548.091 226.694 546.628 225.078 544.72 223.941L543.696 225.659ZM547.32 229.66C548.199 231.356 548.658 233.408 548.658 235.85H550.658C550.658 233.158 550.151 230.777 549.096 228.74L547.32 229.66ZM548.658 235.85C548.658 237.692 548.404 239.312 547.914 240.721L549.803 241.379C550.379 239.722 550.658 237.874 550.658 235.85H548.658ZM547.914 240.721C547.422 242.135 546.706 243.349 545.769 244.376L547.247 245.724C548.377 244.485 549.228 243.032 549.803 241.379L547.914 240.721ZM545.779 244.365C544.845 245.36 543.73 246.13 542.422 246.678L543.194 248.522C544.753 247.87 546.105 246.94 547.237 245.735L545.779 244.365ZM542.433 246.673C541.171 247.184 539.718 247.45 538.058 247.45V249.45C539.932 249.45 541.646 249.149 543.183 248.527L542.433 246.673ZM538.058 246.2C539.729 246.2 541.239 245.789 542.551 244.94L541.465 243.26C540.511 243.878 539.388 244.2 538.058 244.2V246.2ZM542.551 244.94C543.872 244.085 544.859 242.852 545.527 241.294L543.689 240.506C543.157 241.748 542.411 242.649 541.465 243.26L542.551 244.94ZM545.519 241.312C546.225 239.752 546.558 237.92 546.558 235.85H544.558C544.558 237.713 544.258 239.248 543.697 240.488L545.519 241.312ZM546.558 235.85C546.558 232.682 545.846 230.097 544.269 228.251L542.748 229.549C543.904 230.903 544.558 232.952 544.558 235.85H546.558ZM544.276 228.26C542.732 226.406 540.62 225.5 538.058 225.5V227.5C540.096 227.5 541.618 228.194 542.74 229.54L544.276 228.26ZM538.058 225.5C536.359 225.5 534.831 225.909 533.515 226.76L534.601 228.44C535.552 227.825 536.691 227.5 538.058 227.5V225.5ZM533.521 226.756C532.23 227.578 531.246 228.793 530.547 230.338L532.369 231.162C532.937 229.907 533.687 229.022 534.595 228.444L533.521 226.756ZM530.543 230.348C529.871 231.878 529.558 233.725 529.558 235.85H531.558C531.558 233.908 531.846 232.355 532.374 231.152L530.543 230.348ZM529.558 235.85C529.558 238.99 530.273 241.567 531.841 243.442L533.375 242.158C532.21 240.766 531.558 238.71 531.558 235.85H529.558ZM531.848 243.449C533.421 245.291 535.525 246.2 538.058 246.2V244.2C536.058 244.2 534.529 243.509 533.369 242.151L531.848 243.449ZM556.241 247.8L555.501 248.473L555.517 248.49L555.534 248.507L556.241 247.8ZM556.241 223.9L556.949 224.607L556.965 224.59L556.981 224.573L556.241 223.9ZM559.141 223.9L558.401 224.573L558.433 224.608L558.469 224.64L559.141 223.9ZM559.691 229.45V230.45H560.691V229.45H559.691ZM559.191 229.45L558.226 229.188L557.884 230.45H559.191V229.45ZM567.791 223.2L567.822 224.2L567.84 224.199L567.858 224.198L567.791 223.2ZM568.991 223.55L568.327 224.297L568.352 224.319L568.377 224.339L568.991 223.55ZM569.491 224.8L568.493 224.855L568.493 224.859L569.491 224.8ZM569.091 226.15L569.835 226.819L569.835 226.819L569.091 226.15ZM567.691 226.75L567.587 225.755L567.577 225.757L567.567 225.758L567.691 226.75ZM566.891 226.85L566.979 227.846L566.997 227.845L567.015 227.842L566.891 226.85ZM561.641 229.05L560.925 228.352L560.925 228.353L561.641 229.05ZM559.291 247.8L558.584 247.093L558.567 247.11L558.551 247.127L559.291 247.8ZM557.791 247.35C557.311 247.35 557.078 247.223 556.949 247.093L555.534 248.507C556.138 249.111 556.939 249.35 557.791 249.35V247.35ZM556.981 247.127C556.866 247 556.741 246.755 556.741 246.25H554.741C554.741 247.078 554.95 247.866 555.501 248.473L556.981 247.127ZM556.741 246.25V225.4H554.741V246.25H556.741ZM556.741 225.4C556.741 224.887 556.869 224.687 556.949 224.607L555.534 223.193C554.947 223.78 554.741 224.579 554.741 225.4H556.741ZM556.981 224.573C557.076 224.469 557.256 224.35 557.691 224.35V222.35C556.86 222.35 556.074 222.598 555.501 223.227L556.981 224.573ZM557.691 224.35C558.126 224.35 558.307 224.469 558.401 224.573L559.881 223.227C559.309 222.598 558.523 222.35 557.691 222.35V224.35ZM558.469 224.64C558.562 224.725 558.691 224.913 558.691 225.4H560.691C560.691 224.553 560.454 223.742 559.814 223.16L558.469 224.64ZM558.691 225.4V229.45H560.691V225.4H558.691ZM559.691 228.45H559.191V230.45H559.691V228.45ZM560.157 229.712C560.636 227.943 561.53 226.633 562.821 225.715L561.662 224.085C559.953 225.3 558.813 227.024 558.226 229.188L560.157 229.712ZM562.821 225.715C564.131 224.783 565.78 224.261 567.822 224.2L567.761 222.2C565.403 222.272 563.352 222.883 561.662 224.085L562.821 225.715ZM567.858 224.198C568.161 224.178 568.274 224.251 568.327 224.297L569.656 222.803C569.108 222.316 568.422 222.156 567.725 222.202L567.858 224.198ZM568.377 224.339C568.345 224.314 568.466 224.378 568.493 224.855L570.49 224.745C570.45 224.022 570.238 223.253 569.605 222.761L568.377 224.339ZM568.493 224.859C568.515 225.233 568.425 225.396 568.348 225.481L569.835 226.819C570.358 226.237 570.534 225.5 570.49 224.741L568.493 224.859ZM568.348 225.481C568.271 225.566 568.077 225.704 567.587 225.755L567.796 227.745C568.573 227.663 569.311 227.4 569.835 226.819L568.348 225.481ZM567.567 225.758L566.767 225.858L567.015 227.842L567.815 227.742L567.567 225.758ZM566.804 225.854C564.368 226.069 562.369 226.87 560.925 228.352L562.358 229.748C563.381 228.697 564.881 228.031 566.979 227.846L566.804 225.854ZM560.925 228.353C559.499 229.818 558.841 231.794 558.841 234.15H560.841C560.841 232.173 561.384 230.749 562.358 229.747L560.925 228.353ZM558.841 234.15V246.25H560.841V234.15H558.841ZM558.841 246.25C558.841 246.731 558.714 246.963 558.584 247.093L559.999 248.507C560.602 247.903 560.841 247.103 560.841 246.25H558.841ZM558.551 247.127C558.467 247.221 558.278 247.35 557.791 247.35V249.35C558.638 249.35 559.449 249.113 560.031 248.473L558.551 247.127Z" fill="black"/>
<g filter="url(#filter0_d_145_3)">
<path d="M545.6 401.4C543.067 401.4 541.067 400.667 539.6 399.2C538.133 397.733 537.4 395.667 537.4 393V369.8H480C477.333 369.8 475.2 369.2 473.6 368C472.133 366.667 471.4 364.8 471.4 362.4C471.4 360.933 471.733 359.467 472.4 358C473.067 356.4 474.267 354.4 476 352L537 263.2C538.2 261.333 539.533 259.933 541 259C542.467 258.067 544.2 257.6 546.2 257.6C548.333 257.6 550.133 258.267 551.6 259.6C553.2 260.933 554 263.067 554 266V355.8H568.6C571.133 355.8 573.067 356.4 574.4 357.6C575.733 358.8 576.4 360.533 576.4 362.8C576.4 365.067 575.733 366.8 574.4 368C573.067 369.2 571.133 369.8 568.6 369.8H554V393C554 395.667 553.267 397.733 551.8 399.2C550.333 400.667 548.267 401.4 545.6 401.4ZM537.4 355.8V278.2H542.2L486.2 360.2V355.8H537.4ZM641.922 401.8C625.789 401.8 613.522 395.6 605.122 383.2C596.722 370.8 592.522 352.867 592.522 329.4C592.522 313.667 594.389 300.467 598.122 289.8C601.855 279 607.389 270.867 614.722 265.4C622.189 259.933 631.255 257.2 641.922 257.2C658.189 257.2 670.455 263.333 678.722 275.6C687.122 287.733 691.322 305.6 691.322 329.2C691.322 344.933 689.455 358.2 685.722 369C681.989 379.8 676.455 388 669.122 393.6C661.789 399.067 652.722 401.8 641.922 401.8ZM641.922 387.6C653.122 387.6 661.389 382.867 666.722 373.4C672.189 363.8 674.922 349.067 674.922 329.2C674.922 309.2 672.189 294.6 666.722 285.4C661.389 276.067 653.122 271.4 641.922 271.4C630.855 271.4 622.589 276.067 617.122 285.4C611.655 294.733 608.922 309.333 608.922 329.2C608.922 349.067 611.655 363.8 617.122 373.4C622.589 382.867 630.855 387.6 641.922 387.6ZM785.444 401.4C782.91 401.4 780.91 400.667 779.444 399.2C777.977 397.733 777.244 395.667 777.244 393V369.8H719.844C717.177 369.8 715.044 369.2 713.444 368C711.977 366.667 711.244 364.8 711.244 362.4C711.244 360.933 711.577 359.467 712.244 358C712.91 356.4 714.11 354.4 715.844 352L776.844 263.2C778.044 261.333 779.377 259.933 780.844 259C782.31 258.067 784.044 257.6 786.044 257.6C788.177 257.6 789.977 258.267 791.444 259.6C793.044 260.933 793.844 263.067 793.844 266V355.8H808.444C810.977 355.8 812.91 356.4 814.244 357.6C815.577 358.8 816.244 360.533 816.244 362.8C816.244 365.067 815.577 366.8 814.244 368C812.91 369.2 810.977 369.8 808.444 369.8H793.844V393C793.844 395.667 793.11 397.733 791.644 399.2C790.177 400.667 788.11 401.4 785.444 401.4ZM777.244 355.8V278.2H782.044L726.044 360.2V355.8H777.244Z" fill="black"/>
<path d="M537.4 369.8H538.4V368.8H537.4V369.8ZM473.6 368L472.927 368.74L472.962 368.772L473 368.8L473.6 368ZM472.4 358L473.31 358.414L473.317 358.399L473.323 358.385L472.4 358ZM476 352L476.811 352.585L476.818 352.576L476.824 352.566L476 352ZM537 263.2L537.824 263.766L537.833 263.754L537.841 263.741L537 263.2ZM541 259L540.463 258.156L540.463 258.156L541 259ZM551.6 259.6L550.927 260.34L550.943 260.354L550.96 260.368L551.6 259.6ZM554 355.8H553V356.8H554V355.8ZM574.4 368L575.069 368.743L574.4 368ZM554 369.8V368.8H553V369.8H554ZM551.8 399.2L552.507 399.907L552.507 399.907L551.8 399.2ZM537.4 355.8V356.8H538.4V355.8H537.4ZM537.4 278.2V277.2H536.4V278.2H537.4ZM542.2 278.2L543.026 278.764L544.094 277.2H542.2V278.2ZM486.2 360.2H485.2V363.437L487.026 360.764L486.2 360.2ZM486.2 355.8V354.8H485.2V355.8H486.2ZM545.6 400.4C543.269 400.4 541.546 399.732 540.307 398.493L538.893 399.907C540.587 401.601 542.864 402.4 545.6 402.4V400.4ZM540.307 398.493C539.077 397.263 538.4 395.481 538.4 393H536.4C536.4 395.853 537.189 398.203 538.893 399.907L540.307 398.493ZM538.4 393V369.8H536.4V393H538.4ZM537.4 368.8H480V370.8H537.4V368.8ZM480 368.8C477.478 368.8 475.577 368.233 474.2 367.2L473 368.8C474.823 370.167 477.189 370.8 480 370.8V368.8ZM474.273 367.26C473.058 366.156 472.4 364.583 472.4 362.4H470.4C470.4 365.017 471.209 367.178 472.927 368.74L474.273 367.26ZM472.4 362.4C472.4 361.09 472.697 359.763 473.31 358.414L471.49 357.586C470.77 359.17 470.4 360.777 470.4 362.4H472.4ZM473.323 358.385C473.947 356.888 475.096 354.96 476.811 352.585L475.189 351.415C473.438 353.84 472.187 355.912 471.477 357.615L473.323 358.385ZM476.824 352.566L537.824 263.766L536.176 262.634L475.176 351.434L476.824 352.566ZM537.841 263.741C538.984 261.963 540.221 260.681 541.537 259.844L540.463 258.156C538.845 259.186 537.416 260.703 536.159 262.659L537.841 263.741ZM541.537 259.844C542.82 259.027 544.361 258.6 546.2 258.6V256.6C544.039 256.6 542.113 257.106 540.463 258.156L541.537 259.844ZM546.2 258.6C548.105 258.6 549.659 259.187 550.927 260.34L552.273 258.86C550.607 257.346 548.561 256.6 546.2 256.6V258.6ZM550.96 260.368C552.25 261.443 553 263.237 553 266H555C555 262.896 554.15 260.423 552.24 258.832L550.96 260.368ZM553 266V355.8H555V266H553ZM554 356.8H568.6V354.8H554V356.8ZM568.6 356.8C570.988 356.8 572.645 357.366 573.731 358.343L575.069 356.857C573.488 355.434 571.279 354.8 568.6 354.8V356.8ZM573.731 358.343C574.801 359.306 575.4 360.737 575.4 362.8H577.4C577.4 360.33 576.666 358.294 575.069 356.857L573.731 358.343ZM575.4 362.8C575.4 364.863 574.801 366.294 573.731 367.257L575.069 368.743C576.666 367.306 577.4 365.27 577.4 362.8H575.4ZM573.731 367.257C572.645 368.234 570.988 368.8 568.6 368.8V370.8C571.279 370.8 573.488 370.166 575.069 368.743L573.731 367.257ZM568.6 368.8H554V370.8H568.6V368.8ZM553 369.8V393H555V369.8H553ZM553 393C553 395.481 552.323 397.263 551.093 398.493L552.507 399.907C554.211 398.203 555 395.853 555 393H553ZM551.093 398.493C549.863 399.723 548.081 400.4 545.6 400.4V402.4C548.453 402.4 550.803 401.611 552.507 399.907L551.093 398.493ZM538.4 355.8V278.2H536.4V355.8H538.4ZM537.4 279.2H542.2V277.2H537.4V279.2ZM541.374 277.636L485.374 359.636L487.026 360.764L543.026 278.764L541.374 277.636ZM487.2 360.2V355.8H485.2V360.2H487.2ZM486.2 356.8H537.4V354.8H486.2V356.8ZM605.122 383.2L605.95 382.639L605.95 382.639L605.122 383.2ZM598.122 289.8L599.066 290.13L599.067 290.127L598.122 289.8ZM614.722 265.4L614.131 264.593L614.124 264.598L614.722 265.4ZM678.722 275.6L677.893 276.159L677.9 276.169L678.722 275.6ZM685.722 369L686.667 369.327L686.667 369.327L685.722 369ZM669.122 393.6L669.72 394.402L669.729 394.395L669.122 393.6ZM666.722 373.4L665.853 372.905L665.851 372.909L666.722 373.4ZM666.722 285.4L665.854 285.896L665.858 285.904L665.862 285.911L666.722 285.4ZM617.122 285.4L617.985 285.905L617.985 285.905L617.122 285.4ZM617.122 373.4L616.253 373.895L616.256 373.9L617.122 373.4ZM641.922 400.8C626.09 400.8 614.147 394.74 605.95 382.639L604.294 383.761C612.896 396.46 625.487 402.8 641.922 402.8V400.8ZM605.95 382.639C597.709 370.474 593.522 352.771 593.522 329.4H591.522C591.522 352.962 595.735 371.126 604.294 383.761L605.95 382.639ZM593.522 329.4C593.522 313.738 595.381 300.658 599.066 290.13L597.178 289.47C593.396 300.275 591.522 313.595 591.522 329.4H593.522ZM599.067 290.127C602.751 279.469 608.183 271.522 615.32 266.202L614.124 264.598C606.594 270.212 600.959 278.531 597.177 289.473L599.067 290.127ZM615.313 266.207C622.583 260.884 631.434 258.2 641.922 258.2V256.2C631.076 256.2 621.795 258.982 614.131 264.593L615.313 266.207ZM641.922 258.2C657.895 258.2 669.833 264.199 677.893 276.159L679.551 275.041C671.078 262.468 658.482 256.2 641.922 256.2V258.2ZM677.9 276.169C686.133 288.062 690.322 305.692 690.322 329.2H692.322C692.322 305.508 688.11 287.404 679.544 275.031L677.9 276.169ZM690.322 329.2C690.322 344.861 688.463 358.01 684.777 368.673L686.667 369.327C690.447 358.39 692.322 345.006 692.322 329.2H690.322ZM684.777 368.673C681.092 379.332 675.658 387.35 668.515 392.805L669.729 394.395C677.252 388.65 682.885 380.268 686.667 369.327L684.777 368.673ZM668.524 392.798C661.393 398.114 652.547 400.8 641.922 400.8V402.8C652.897 402.8 662.184 400.019 669.72 394.402L668.524 392.798ZM641.922 388.6C653.469 388.6 662.076 383.684 667.593 373.891L665.851 372.909C660.701 382.049 652.775 386.6 641.922 386.6V388.6ZM667.591 373.895C673.187 364.067 675.922 349.122 675.922 329.2H673.922C673.922 349.012 671.19 363.533 665.853 372.905L667.591 373.895ZM675.922 329.2C675.922 309.152 673.19 294.327 667.582 284.889L665.862 285.911C671.187 294.873 673.922 309.248 673.922 329.2H675.922ZM667.59 284.904C662.07 275.243 653.462 270.4 641.922 270.4V272.4C652.782 272.4 660.707 276.89 665.854 285.896L667.59 284.904ZM641.922 270.4C630.51 270.4 621.91 275.246 616.259 284.895L617.985 285.905C623.267 276.887 631.2 272.4 641.922 272.4V270.4ZM616.259 284.895C610.655 294.462 607.922 309.282 607.922 329.2H609.922C609.922 309.385 612.655 295.004 617.985 285.905L616.259 284.895ZM607.922 329.2C607.922 349.122 610.656 364.067 616.253 373.895L617.991 372.905C612.654 363.533 609.922 349.012 609.922 329.2H607.922ZM616.256 373.9C621.904 383.681 630.503 388.6 641.922 388.6V386.6C631.207 386.6 623.273 382.053 617.988 372.9L616.256 373.9ZM777.244 369.8H778.244V368.8H777.244V369.8ZM713.444 368L712.771 368.74L712.806 368.772L712.844 368.8L713.444 368ZM712.244 358L713.154 358.414L713.161 358.399L713.167 358.385L712.244 358ZM715.844 352L716.654 352.585L716.661 352.576L716.668 352.566L715.844 352ZM776.844 263.2L777.668 263.766L777.677 263.754L777.685 263.741L776.844 263.2ZM780.844 259L780.307 258.156L780.307 258.156L780.844 259ZM791.444 259.6L790.771 260.34L790.787 260.354L790.804 260.368L791.444 259.6ZM793.844 355.8H792.844V356.8H793.844V355.8ZM814.244 368L814.913 368.743L814.244 368ZM793.844 369.8V368.8H792.844V369.8H793.844ZM791.644 399.2L792.351 399.907L792.351 399.907L791.644 399.2ZM777.244 355.8V356.8H778.244V355.8H777.244ZM777.244 278.2V277.2H776.244V278.2H777.244ZM782.044 278.2L782.87 278.764L783.938 277.2H782.044V278.2ZM726.044 360.2H725.044V363.437L726.87 360.764L726.044 360.2ZM726.044 355.8V354.8H725.044V355.8H726.044ZM785.444 400.4C783.113 400.4 781.39 399.732 780.151 398.493L778.737 399.907C780.431 401.601 782.708 402.4 785.444 402.4V400.4ZM780.151 398.493C778.921 397.263 778.244 395.481 778.244 393H776.244C776.244 395.853 777.033 398.203 778.737 399.907L780.151 398.493ZM778.244 393V369.8H776.244V393H778.244ZM777.244 368.8H719.844V370.8H777.244V368.8ZM719.844 368.8C717.322 368.8 715.421 368.233 714.044 367.2L712.844 368.8C714.667 370.167 717.032 370.8 719.844 370.8V368.8ZM714.116 367.26C712.902 366.156 712.244 364.583 712.244 362.4H710.244C710.244 365.017 711.053 367.178 712.771 368.74L714.116 367.26ZM712.244 362.4C712.244 361.09 712.541 359.763 713.154 358.414L711.333 357.586C710.614 359.17 710.244 360.777 710.244 362.4H712.244ZM713.167 358.385C713.79 356.888 714.939 354.96 716.654 352.585L715.033 351.415C713.282 353.84 712.031 355.912 711.321 357.615L713.167 358.385ZM716.668 352.566L777.668 263.766L776.019 262.634L715.019 351.434L716.668 352.566ZM777.685 263.741C778.828 261.963 780.065 260.681 781.381 259.844L780.307 258.156C778.689 259.186 777.26 260.703 776.003 262.659L777.685 263.741ZM781.381 259.844C782.664 259.027 784.205 258.6 786.044 258.6V256.6C783.883 256.6 781.957 257.106 780.307 258.156L781.381 259.844ZM786.044 258.6C787.949 258.6 789.503 259.187 790.771 260.34L792.116 258.86C790.451 257.346 788.405 256.6 786.044 256.6V258.6ZM790.804 260.368C792.094 261.443 792.844 263.237 792.844 266H794.844C794.844 262.896 793.994 260.423 792.084 258.832L790.804 260.368ZM792.844 266V355.8H794.844V266H792.844ZM793.844 356.8H808.444V354.8H793.844V356.8ZM808.444 356.8C810.831 356.8 812.489 357.366 813.575 358.343L814.913 356.857C813.332 355.434 811.123 354.8 808.444 354.8V356.8ZM813.575 358.343C814.644 359.306 815.244 360.737 815.244 362.8H817.244C817.244 360.33 816.51 358.294 814.913 356.857L813.575 358.343ZM815.244 362.8C815.244 364.863 814.644 366.294 813.575 367.257L814.913 368.743C816.51 367.306 817.244 365.27 817.244 362.8H815.244ZM813.575 367.257C812.489 368.234 810.831 368.8 808.444 368.8V370.8C811.123 370.8 813.332 370.166 814.913 368.743L813.575 367.257ZM808.444 368.8H793.844V370.8H808.444V368.8ZM792.844 369.8V393H794.844V369.8H792.844ZM792.844 393C792.844 395.481 792.166 397.263 790.937 398.493L792.351 399.907C794.055 398.203 794.844 395.853 794.844 393H792.844ZM790.937 398.493C789.707 399.723 787.924 400.4 785.444 400.4V402.4C788.296 402.4 790.647 401.611 792.351 399.907L790.937 398.493ZM778.244 355.8V278.2H776.244V355.8H778.244ZM777.244 279.2H782.044V277.2H777.244V279.2ZM781.218 277.636L725.218 359.636L726.87 360.764L782.87 278.764L781.218 277.636ZM727.044 360.2V355.8H725.044V360.2H727.044ZM726.044 356.8H777.244V354.8H726.044V356.8Z" fill="black"/>
</g>
<defs>
<filter id="filter0_d_145_3" x="467.4" y="257.2" width="352.844" height="152.6" filterUnits="userSpaceOnUse" color-interpolation-filters="sRGB">
<feFlood flood-opacity="0" result="BackgroundImageFix"/>
<feColorMatrix in="SourceAlpha" type="matrix" values="0 0 0 0 0 0 0 0 0 0 0 0 0 0 0 0 0 0 127 0" result="hardAlpha"/>
<feOffset dy="4"/>
<feGaussianBlur stdDeviation="2"/>
<feComposite in2="hardAlpha" operator="out"/>
<feColorMatrix type="matrix" values="0 0 0 0 0 0 0 0 0 0 0 0 0 0 0 0 0 0 0.25 0"/>
<feBlend mode="normal" in2="BackgroundImageFix" result="effect1_dropShadow_145_3"/>
<feBlend mode="normal" in="SourceGraphic" in2="effect1_dropShadow_145_3" result="shape"/>
</filter>
<linearGradient id="paint0_linear_145_3" x1="372.543" y1="175.042" x2="555.787" y2="405.159" gradientUnits="userSpaceOnUse">
<stop stop-color="#8952FF"/>
<stop offset="0.417001" stop-color="#716FFF"/>
<stop offset="1" stop-color="#38B6FF"/>
</linearGradient>
<clipPath id="clip0_145_3">
<rect width="532" height="460" fill="white" transform="translate(288 90)"/>
</clipPath>
</defs>
</svg>
