<svg width="129" height="119" viewBox="0 0 129 119" fill="none" xmlns="http://www.w3.org/2000/svg">
<g clip-path="url(#clip0_101_8)">
<path d="M44 101C68.3005 101 88 81.3005 88 57C88 32.6995 68.3005 13 44 13C19.6995 13 0 32.6995 0 57C0 81.3005 19.6995 101 44 101Z" fill="url(#paint0_linear_101_8)"/>
<g filter="url(#filter0_d_101_8)">
<path d="M44.5114 57.18C44.1514 57.204 43.8754 57.12 43.6834 56.928C43.4674 56.712 43.3594 56.46 43.3594 56.172C43.3594 55.956 43.4434 55.764 43.6114 55.596C43.7554 55.404 43.9714 55.296 44.2594 55.272L45.4474 55.164C46.7194 55.068 47.7034 54.6 48.3994 53.76C49.0954 52.92 49.4434 51.804 49.4434 50.412V32.52C49.4434 32.16 49.5394 31.884 49.7314 31.692C49.9234 31.5 50.1994 31.404 50.5594 31.404C50.9194 31.404 51.1954 31.5 51.3874 31.692C51.5794 31.884 51.6754 32.16 51.6754 32.52V50.448C51.6754 51.768 51.4474 52.908 50.9914 53.868C50.5354 54.828 49.8514 55.584 48.9394 56.136C48.0514 56.664 46.9594 56.988 45.6634 57.108L44.5114 57.18ZM63.0719 57.288C61.6799 57.288 60.5159 57.036 59.5799 56.532C58.6679 56.028 57.9839 55.272 57.5279 54.264C57.0719 53.256 56.8439 52.008 56.8439 50.52V40.44C56.8439 40.056 56.9399 39.768 57.1319 39.576C57.3239 39.384 57.5999 39.288 57.9599 39.288C58.2959 39.288 58.5599 39.384 58.7519 39.576C58.9439 39.768 59.0399 40.056 59.0399 40.44V50.412C59.0399 52.092 59.3879 53.352 60.0839 54.192C60.7799 55.008 61.8719 55.416 63.3599 55.416C64.9919 55.416 66.3119 54.876 67.3199 53.796C68.3279 52.692 68.8319 51.252 68.8319 49.476V40.44C68.8319 40.056 68.9279 39.768 69.1199 39.576C69.3119 39.384 69.5879 39.288 69.9479 39.288C70.2839 39.288 70.5479 39.384 70.7399 39.576C70.9319 39.768 71.0279 40.056 71.0279 40.44V56.1C71.0279 56.844 70.6799 57.216 69.9839 57.216C69.6479 57.216 69.3839 57.12 69.1919 56.928C68.9999 56.736 68.9039 56.46 68.9039 56.1V52.536L69.3359 52.788C68.8799 54.252 68.0879 55.368 66.9599 56.136C65.8319 56.904 64.5359 57.288 63.0719 57.288ZM81.6024 57.288C80.5224 57.288 79.4424 57.144 78.3624 56.856C77.3064 56.568 76.2984 56.076 75.3384 55.38C75.1464 55.26 75.0144 55.116 74.9424 54.948C74.8944 54.756 74.8824 54.564 74.9064 54.372C74.9544 54.18 75.0384 54.024 75.1584 53.904C75.3024 53.76 75.4704 53.676 75.6624 53.652C75.8544 53.628 76.0584 53.688 76.2744 53.832C77.2104 54.456 78.1224 54.888 79.0104 55.128C79.8984 55.368 80.7864 55.488 81.6744 55.488C83.1384 55.488 84.2544 55.212 85.0224 54.66C85.7904 54.108 86.1744 53.364 86.1744 52.428C86.1744 51.66 85.9224 51.072 85.4184 50.664C84.9384 50.232 84.1464 49.884 83.0424 49.62L79.9104 48.9C78.3984 48.564 77.2824 48.024 76.5624 47.28C75.8424 46.512 75.4824 45.528 75.4824 44.328C75.4824 43.296 75.7464 42.396 76.2744 41.628C76.8264 40.86 77.5944 40.272 78.5784 39.864C79.5864 39.432 80.7384 39.216 82.0344 39.216C83.0904 39.216 84.0984 39.372 85.0584 39.684C86.0184 39.996 86.8584 40.476 87.5784 41.124C87.7704 41.268 87.8904 41.436 87.9384 41.628C88.0104 41.82 88.0104 42.012 87.9384 42.204C87.8904 42.372 87.7944 42.516 87.6504 42.636C87.5064 42.756 87.3384 42.816 87.1464 42.816C86.9544 42.816 86.7504 42.744 86.5344 42.6C85.8384 42.072 85.1064 41.688 84.3384 41.448C83.5704 41.184 82.7904 41.052 81.9984 41.052C80.6064 41.052 79.5264 41.34 78.7584 41.916C78.0144 42.492 77.6424 43.272 77.6424 44.256C77.6424 45 77.8704 45.6 78.3264 46.056C78.8064 46.512 79.5504 46.86 80.5584 47.1L83.6904 47.82C85.2504 48.18 86.4144 48.72 87.1824 49.44C87.9504 50.136 88.3344 51.084 88.3344 52.284C88.3344 53.82 87.7224 55.044 86.4984 55.956C85.2984 56.844 83.6664 57.288 81.6024 57.288ZM98.618 57.288C97.322 57.288 96.242 57.048 95.378 56.568C94.514 56.088 93.866 55.404 93.434 54.516C93.002 53.604 92.786 52.488 92.786 51.168V41.304H90.122C89.81 41.304 89.558 41.232 89.366 41.088C89.174 40.92 89.078 40.692 89.078 40.404C89.078 40.14 89.174 39.936 89.366 39.792C89.558 39.624 89.81 39.54 90.122 39.54H92.786V35.04C92.786 34.656 92.882 34.38 93.074 34.212C93.266 34.02 93.542 33.924 93.902 33.924C94.238 33.924 94.502 34.02 94.694 34.212C94.886 34.38 94.982 34.656 94.982 35.04V39.54H99.842C100.178 39.54 100.43 39.624 100.598 39.792C100.766 39.936 100.85 40.14 100.85 40.404C100.85 40.692 100.766 40.92 100.598 41.088C100.43 41.232 100.178 41.304 99.842 41.304H94.982V50.88C94.982 52.344 95.282 53.46 95.882 54.228C96.482 54.996 97.478 55.38 98.87 55.38C99.35 55.38 99.746 55.332 100.058 55.236C100.394 55.116 100.67 55.056 100.886 55.056C101.054 55.056 101.198 55.128 101.318 55.272C101.462 55.416 101.534 55.644 101.534 55.956C101.534 56.148 101.486 56.34 101.39 56.532C101.318 56.724 101.174 56.844 100.958 56.892C100.694 56.988 100.334 57.072 99.878 57.144C99.422 57.24 99.002 57.288 98.618 57.288ZM20.5963 84.216C20.2843 84.216 20.0323 84.12 19.8403 83.928C19.6723 83.736 19.5883 83.472 19.5883 83.136V59.484C19.5883 59.124 19.6723 58.86 19.8403 58.692C20.0323 58.5 20.2723 58.404 20.5603 58.404C20.8723 58.404 21.1123 58.464 21.2803 58.584C21.4483 58.704 21.6043 58.896 21.7483 59.16L32.0443 78.708H31.0363L41.2603 59.16C41.4283 58.896 41.5843 58.704 41.7283 58.584C41.8963 58.464 42.1363 58.404 42.4483 58.404C42.7363 58.404 42.9643 58.5 43.1323 58.692C43.3243 58.86 43.4203 59.124 43.4203 59.484V83.136C43.4203 83.472 43.3363 83.736 43.1683 83.928C43.0003 84.12 42.7483 84.216 42.4123 84.216C42.0763 84.216 41.8123 84.12 41.6203 83.928C41.4523 83.736 41.3683 83.472 41.3683 83.136V61.284H42.2323L32.5843 79.572C32.4643 79.812 32.3323 79.992 32.1883 80.112C32.0443 80.232 31.8403 80.292 31.5763 80.292C31.2883 80.292 31.0603 80.232 30.8923 80.112C30.7483 79.968 30.6163 79.788 30.4963 79.572L20.7403 61.248H21.6043V83.136C21.6043 83.472 21.5203 83.736 21.3523 83.928C21.1843 84.12 20.9323 84.216 20.5963 84.216ZM56.3311 84.288C54.5311 84.288 52.9831 83.928 51.6871 83.208C50.3911 82.488 49.3951 81.456 48.6991 80.112C48.0031 78.768 47.6551 77.172 47.6551 75.324C47.6551 73.5 48.0031 71.916 48.6991 70.572C49.3951 69.204 50.3551 68.136 51.5791 67.368C52.8271 66.6 54.2551 66.216 55.8631 66.216C57.0391 66.216 58.0711 66.42 58.9591 66.828C59.8711 67.212 60.6391 67.776 61.2631 68.52C61.9111 69.24 62.4031 70.128 62.7391 71.184C63.0751 72.216 63.2431 73.392 63.2431 74.712C63.2431 75.048 63.1471 75.3 62.9551 75.468C62.7871 75.636 62.5471 75.72 62.2351 75.72H49.2391V74.1H61.8751L61.2991 74.568C61.2991 73.176 61.0951 72 60.6871 71.04C60.2791 70.056 59.6671 69.3 58.8511 68.772C58.0591 68.244 57.0751 67.98 55.8991 67.98C54.5791 67.98 53.4631 68.292 52.5511 68.916C51.6391 69.516 50.9551 70.356 50.4991 71.436C50.0431 72.492 49.8151 73.716 49.8151 75.108V75.288C49.8151 77.592 50.3791 79.368 51.5071 80.616C52.6351 81.84 54.2191 82.452 56.2591 82.452C57.1471 82.452 57.9991 82.332 58.8151 82.092C59.6551 81.852 60.4711 81.444 61.2631 80.868C61.5031 80.7 61.7311 80.616 61.9471 80.616C62.1871 80.616 62.3791 80.676 62.5231 80.796C62.6911 80.916 62.7991 81.072 62.8471 81.264C62.9191 81.432 62.9071 81.624 62.8111 81.84C62.7391 82.032 62.5831 82.212 62.3431 82.38C61.5751 83.004 60.6511 83.484 59.5711 83.82C58.4911 84.132 57.4111 84.288 56.3311 84.288ZM68.0075 84.216C67.6475 84.216 67.3715 84.12 67.1795 83.928C66.9875 83.736 66.8915 83.46 66.8915 83.1V67.44C66.8915 67.056 66.9875 66.768 67.1795 66.576C67.3715 66.384 67.6475 66.288 68.0075 66.288C68.3435 66.288 68.5955 66.384 68.7635 66.576C68.9555 66.768 69.0515 67.056 69.0515 67.44V70.86L68.6555 70.608C69.0875 69.192 69.8195 68.112 70.8515 67.368C71.8835 66.6 73.1195 66.216 74.5595 66.216C76.0955 66.216 77.3195 66.588 78.2315 67.332C79.1675 68.076 79.7795 69.192 80.0675 70.68H79.5275C79.9355 69.336 80.6915 68.256 81.7955 67.44C82.9235 66.624 84.2435 66.216 85.7555 66.216C87.0515 66.216 88.1195 66.468 88.9595 66.972C89.8235 67.476 90.4715 68.232 90.9035 69.24C91.3355 70.224 91.5515 71.472 91.5515 72.984V83.1C91.5515 83.46 91.4555 83.736 91.2635 83.928C91.0715 84.12 90.7955 84.216 90.4355 84.216C90.0995 84.216 89.8355 84.12 89.6435 83.928C89.4515 83.736 89.3555 83.46 89.3555 83.1V73.164C89.3555 71.412 89.0435 70.14 88.4195 69.348C87.8195 68.532 86.7995 68.124 85.3595 68.124C83.8235 68.124 82.5995 68.664 81.6875 69.744C80.7755 70.8 80.3195 72.24 80.3195 74.064V83.1C80.3195 83.46 80.2235 83.736 80.0315 83.928C79.8395 84.12 79.5755 84.216 79.2395 84.216C78.8795 84.216 78.6035 84.12 78.4115 83.928C78.2195 83.736 78.1235 83.46 78.1235 83.1V73.164C78.1235 71.412 77.8115 70.14 77.1875 69.348C76.5875 68.532 75.5795 68.124 74.1635 68.124C72.6035 68.124 71.3675 68.664 70.4555 69.744C69.5435 70.8 69.0875 72.24 69.0875 74.064V83.1C69.0875 83.844 68.7275 84.216 68.0075 84.216ZM103.996 84.288C102.196 84.288 100.648 83.928 99.3519 83.208C98.0559 82.488 97.0599 81.456 96.3639 80.112C95.6679 78.768 95.3199 77.172 95.3199 75.324C95.3199 73.5 95.6679 71.916 96.3639 70.572C97.0599 69.204 98.0199 68.136 99.2439 67.368C100.492 66.6 101.92 66.216 103.528 66.216C104.704 66.216 105.736 66.42 106.624 66.828C107.536 67.212 108.304 67.776 108.928 68.52C109.576 69.24 110.068 70.128 110.404 71.184C110.74 72.216 110.908 73.392 110.908 74.712C110.908 75.048 110.812 75.3 110.62 75.468C110.452 75.636 110.212 75.72 109.9 75.72H96.9039V74.1H109.54L108.964 74.568C108.964 73.176 108.76 72 108.352 71.04C107.944 70.056 107.332 69.3 106.516 68.772C105.724 68.244 104.74 67.98 103.564 67.98C102.244 67.98 101.128 68.292 100.216 68.916C99.3039 69.516 98.6199 70.356 98.1639 71.436C97.7079 72.492 97.4799 73.716 97.4799 75.108V75.288C97.4799 77.592 98.0439 79.368 99.1719 80.616C100.3 81.84 101.884 82.452 103.924 82.452C104.812 82.452 105.664 82.332 106.48 82.092C107.32 81.852 108.136 81.444 108.928 80.868C109.168 80.7 109.396 80.616 109.612 80.616C109.852 80.616 110.044 80.676 110.188 80.796C110.356 80.916 110.464 81.072 110.512 81.264C110.584 81.432 110.572 81.624 110.476 81.84C110.404 82.032 110.248 82.212 110.008 82.38C109.24 83.004 108.316 83.484 107.236 83.82C106.156 84.132 105.076 84.288 103.996 84.288ZM120.172 84.288C119.092 84.288 118.012 84.144 116.932 83.856C115.876 83.568 114.868 83.076 113.908 82.38C113.716 82.26 113.584 82.116 113.512 81.948C113.464 81.756 113.452 81.564 113.476 81.372C113.524 81.18 113.608 81.024 113.728 80.904C113.872 80.76 114.04 80.676 114.232 80.652C114.424 80.628 114.628 80.688 114.844 80.832C115.78 81.456 116.692 81.888 117.58 82.128C118.468 82.368 119.356 82.488 120.244 82.488C121.708 82.488 122.824 82.212 123.592 81.66C124.36 81.108 124.744 80.364 124.744 79.428C124.744 78.66 124.492 78.072 123.988 77.664C123.508 77.232 122.716 76.884 121.612 76.62L118.48 75.9C116.968 75.564 115.852 75.024 115.132 74.28C114.412 73.512 114.052 72.528 114.052 71.328C114.052 70.296 114.316 69.396 114.844 68.628C115.396 67.86 116.164 67.272 117.148 66.864C118.156 66.432 119.308 66.216 120.604 66.216C121.66 66.216 122.668 66.372 123.628 66.684C124.588 66.996 125.428 67.476 126.148 68.124C126.34 68.268 126.46 68.436 126.508 68.628C126.58 68.82 126.58 69.012 126.508 69.204C126.46 69.372 126.364 69.516 126.22 69.636C126.076 69.756 125.908 69.816 125.716 69.816C125.524 69.816 125.32 69.744 125.104 69.6C124.408 69.072 123.676 68.688 122.908 68.448C122.14 68.184 121.36 68.052 120.568 68.052C119.176 68.052 118.096 68.34 117.328 68.916C116.584 69.492 116.212 70.272 116.212 71.256C116.212 72 116.44 72.6 116.896 73.056C117.376 73.512 118.12 73.86 119.128 74.1L122.26 74.82C123.82 75.18 124.984 75.72 125.752 76.44C126.52 77.136 126.904 78.084 126.904 79.284C126.904 80.82 126.292 82.044 125.068 82.956C123.868 83.844 122.236 84.288 120.172 84.288Z" fill="black"/>
<path d="M44.5114 57.18L44.449 56.1819L44.4449 56.1822L44.5114 57.18ZM43.6834 56.928L42.9763 57.6351L42.9763 57.6351L43.6834 56.928ZM43.6114 55.596L44.3185 56.3031L44.3688 56.2529L44.4114 56.196L43.6114 55.596ZM44.2594 55.272L44.3425 56.2686L44.3499 56.2679L44.2594 55.272ZM45.4474 55.164L45.3721 54.1668L45.3645 54.1674L45.3569 54.1681L45.4474 55.164ZM48.3994 53.76L47.6294 53.122L47.6294 53.122L48.3994 53.76ZM49.7314 31.692L50.4385 32.3991L50.4385 32.3991L49.7314 31.692ZM51.3874 31.692L50.6803 32.3991L50.6803 32.3991L51.3874 31.692ZM50.9914 53.868L50.0881 53.4389L50.0881 53.4389L50.9914 53.868ZM48.9394 56.136L49.4505 56.9956L49.4572 56.9915L48.9394 56.136ZM45.6634 57.108L45.7258 58.1061L45.7407 58.1051L45.7556 58.1037L45.6634 57.108ZM44.4449 56.1822C44.3565 56.1881 44.3229 56.1775 44.3256 56.1783C44.3277 56.179 44.3373 56.1822 44.3511 56.1904C44.3652 56.1987 44.3789 56.2093 44.3905 56.2209L42.9763 57.6351C43.4337 58.0925 44.0302 58.2143 44.5779 58.1778L44.4449 56.1822ZM44.3905 56.2209C44.3759 56.2062 44.3678 56.1958 44.3638 56.19C44.36 56.1845 44.3592 56.1823 44.3595 56.1831C44.3597 56.1833 44.3598 56.1838 44.36 56.1844C44.3602 56.185 44.3603 56.1853 44.3602 56.1851C44.3602 56.1851 44.3594 56.1812 44.3594 56.172H42.3594C42.3594 56.7426 42.5854 57.2442 42.9763 57.6351L44.3905 56.2209ZM44.3594 56.172C44.3594 56.1976 44.3536 56.2325 44.3386 56.2668C44.3244 56.2993 44.311 56.3106 44.3185 56.3031L42.9043 54.8889C42.5694 55.2238 42.3594 55.663 42.3594 56.172H44.3594ZM44.4114 56.196C44.402 56.2086 44.3891 56.2226 44.3731 56.236C44.3571 56.2493 44.3415 56.259 44.3286 56.2654C44.3028 56.2783 44.3009 56.272 44.3425 56.2685L44.1764 54.2755C43.667 54.3179 43.1615 54.5291 42.8114 54.996L44.4114 56.196ZM44.3499 56.2679L45.5379 56.1599L45.3569 54.1681L44.1689 54.2761L44.3499 56.2679ZM45.5227 56.1612C47.0156 56.0485 48.2708 55.4826 49.1694 54.398L47.6294 53.122C47.1361 53.7174 46.4232 54.0875 45.3721 54.1668L45.5227 56.1612ZM49.1694 54.398C50.0512 53.3339 50.4434 51.9713 50.4434 50.412H48.4434C48.4434 51.6367 48.1396 52.5061 47.6294 53.122L49.1694 54.398ZM50.4434 50.412V32.52H48.4434V50.412H50.4434ZM50.4434 32.52C50.4434 32.4269 50.456 32.3826 50.4599 32.3715C50.4616 32.3666 50.4613 32.3689 50.4571 32.3758C50.4527 32.383 50.4463 32.3913 50.4385 32.3991L49.0243 30.9849C48.5898 31.4194 48.4434 31.9842 48.4434 32.52H50.4434ZM50.4385 32.3991C50.4307 32.4069 50.4224 32.4133 50.4153 32.4177C50.4083 32.4219 50.406 32.4222 50.4109 32.4205C50.422 32.4166 50.4663 32.404 50.5594 32.404V30.404C50.0236 30.404 49.4588 30.5504 49.0243 30.9849L50.4385 32.3991ZM50.5594 32.404C50.6525 32.404 50.6968 32.4166 50.7079 32.4205C50.7128 32.4222 50.7105 32.4219 50.7036 32.4177C50.6964 32.4133 50.6881 32.4069 50.6803 32.3991L52.0945 30.9849C51.66 30.5504 51.0952 30.404 50.5594 30.404V32.404ZM50.6803 32.3991C50.6725 32.3913 50.6661 32.383 50.6617 32.3758C50.6575 32.3689 50.6572 32.3666 50.6589 32.3715C50.6628 32.3826 50.6754 32.4269 50.6754 32.52H52.6754C52.6754 31.9842 52.529 31.4194 52.0945 30.9849L50.6803 32.3991ZM50.6754 32.52V50.448H52.6754V32.52H50.6754ZM50.6754 50.448C50.6754 51.6546 50.4669 52.6414 50.0881 53.4389L51.8947 54.2971C52.4279 53.1746 52.6754 51.8814 52.6754 50.448H50.6754ZM50.0881 53.4389C49.7164 54.2216 49.1667 54.8295 48.4216 55.2805L49.4572 56.9915C50.5361 56.3385 51.3544 55.4344 51.8947 54.2971L50.0881 53.4389ZM48.4283 55.2765C47.6968 55.7114 46.7565 56.0025 45.5712 56.1123L45.7556 58.1037C47.1623 57.9735 48.406 57.6166 49.4505 56.9955L48.4283 55.2765ZM45.601 56.1099L44.449 56.1819L44.5738 58.1781L45.7258 58.1061L45.601 56.1099ZM59.5799 56.532L59.0962 57.4073L59.1058 57.4125L59.5799 56.532ZM57.1319 39.576L56.4248 38.8689L56.4248 38.8689L57.1319 39.576ZM58.7519 39.576L59.459 38.8689L59.459 38.8689L58.7519 39.576ZM60.0839 54.192L59.3139 54.83L59.3185 54.8355L59.3231 54.8409L60.0839 54.192ZM67.3199 53.796L68.051 54.4784L68.0584 54.4703L67.3199 53.796ZM69.1919 56.928L69.899 56.2209L69.899 56.2209L69.1919 56.928ZM68.9039 52.536L69.4078 51.6722L67.9039 50.795V52.536H68.9039ZM69.3359 52.788L70.2907 53.0854L70.5274 52.3253L69.8398 51.9242L69.3359 52.788ZM66.9599 56.136L67.5227 56.9626L67.5227 56.9626L66.9599 56.136ZM63.0719 56.288C61.7959 56.288 60.8062 56.0565 60.054 55.6515L59.1058 57.4125C60.2257 58.0155 61.564 58.288 63.0719 58.288V56.288ZM60.0636 55.6568C59.3523 55.2637 58.812 54.6764 58.439 53.8518L56.6168 54.6762C57.1558 55.8676 57.9835 56.7923 59.0962 57.4072L60.0636 55.6568ZM58.439 53.8518C58.0581 53.0099 57.8439 51.9123 57.8439 50.52H55.8439C55.8439 52.1037 56.0857 53.5021 56.6168 54.6762L58.439 53.8518ZM57.8439 50.52V40.44H55.8439V50.52H57.8439ZM57.8439 40.44C57.8439 40.3283 57.8582 40.2714 57.8646 40.2522C57.8694 40.2379 57.8652 40.2569 57.839 40.2831L56.4248 38.8689C55.9791 39.3146 55.8439 39.9019 55.8439 40.44H57.8439ZM57.839 40.2831C57.8312 40.2909 57.8229 40.2973 57.8158 40.3017C57.8089 40.3059 57.8065 40.3062 57.8115 40.3045C57.8226 40.3006 57.8668 40.288 57.9599 40.288V38.288C57.4242 38.288 56.8593 38.4344 56.4248 38.8689L57.839 40.2831ZM57.9599 40.288C58.0336 40.288 58.0648 40.2986 58.0682 40.2998C58.0697 40.3003 58.0664 40.2993 58.0604 40.2955C58.0544 40.2916 58.0489 40.2871 58.0448 40.2831L59.459 38.8689C59.0371 38.4469 58.4944 38.288 57.9599 38.288V40.288ZM58.0448 40.2831C58.0187 40.2569 58.0145 40.2379 58.0193 40.2522C58.0256 40.2714 58.0399 40.3283 58.0399 40.44H60.0399C60.0399 39.9019 59.9047 39.3146 59.459 38.8689L58.0448 40.2831ZM58.0399 40.44V50.412H60.0399V40.44H58.0399ZM58.0399 50.412C58.0399 52.2052 58.4075 53.7361 59.3139 54.83L60.854 53.554C60.3684 52.9679 60.0399 51.9788 60.0399 50.412H58.0399ZM59.3231 54.8409C60.2745 55.9564 61.6977 56.416 63.3599 56.416V54.416C62.0462 54.416 61.2854 54.0596 60.8448 53.5431L59.3231 54.8409ZM63.3599 56.416C65.2369 56.416 66.833 55.7834 68.051 54.4783L66.5889 53.1137C65.7909 53.9686 64.747 54.416 63.3599 54.416V56.416ZM68.0584 54.4703C69.2654 53.1483 69.8319 51.4518 69.8319 49.476H67.8319C67.8319 51.0522 67.3905 52.2357 66.5814 53.1217L68.0584 54.4703ZM69.8319 49.476V40.44H67.8319V49.476H69.8319ZM69.8319 40.44C69.8319 40.3283 69.8462 40.2714 69.8526 40.2522C69.8574 40.2379 69.8532 40.2569 69.827 40.2831L68.4128 38.8689C67.9671 39.3146 67.8319 39.9019 67.8319 40.44H69.8319ZM69.827 40.2831C69.8192 40.2909 69.8109 40.2973 69.8038 40.3017C69.7969 40.3059 69.7945 40.3062 69.7995 40.3045C69.8106 40.3006 69.8548 40.288 69.9479 40.288V38.288C69.4122 38.288 68.8473 38.4344 68.4128 38.8689L69.827 40.2831ZM69.9479 40.288C70.0216 40.288 70.0528 40.2986 70.0562 40.2998C70.0577 40.3003 70.0544 40.2993 70.0484 40.2955C70.0424 40.2916 70.0369 40.2871 70.0328 40.2831L71.447 38.8689C71.0251 38.4469 70.4824 38.288 69.9479 38.288V40.288ZM70.0328 40.2831C70.0067 40.2569 70.0025 40.2379 70.0073 40.2522C70.0136 40.2714 70.0279 40.3283 70.0279 40.44H72.0279C72.0279 39.9019 71.8927 39.3146 71.447 38.8689L70.0328 40.2831ZM70.0279 40.44V56.1H72.0279V40.44H70.0279ZM70.0279 56.1C70.0279 56.2112 70.0146 56.2696 70.008 56.2906C70.0027 56.3075 70.0066 56.2859 70.0367 56.2538C70.0506 56.2389 70.0658 56.2266 70.0802 56.2173C70.0943 56.2083 70.1038 56.2047 70.105 56.2043C70.1059 56.204 70.0716 56.216 69.9839 56.216V58.216C70.5038 58.216 71.0727 58.0739 71.4972 57.6202C71.9099 57.179 72.0279 56.6102 72.0279 56.1H70.0279ZM69.9839 56.216C69.9102 56.216 69.879 56.2054 69.8757 56.2042C69.8742 56.2037 69.8774 56.2047 69.8834 56.2085C69.8895 56.2124 69.895 56.2169 69.899 56.2209L68.4848 57.6351C68.9068 58.0571 69.4495 58.216 69.9839 58.216V56.216ZM69.899 56.2209C69.9069 56.2287 69.9132 56.237 69.9176 56.2442C69.9218 56.2511 69.9222 56.2534 69.9204 56.2485C69.9166 56.2374 69.9039 56.1931 69.9039 56.1H67.9039C67.9039 56.6358 68.0503 57.2006 68.4848 57.6351L69.899 56.2209ZM69.9039 56.1V52.536H67.9039V56.1H69.9039ZM68.4001 53.3998L68.8321 53.6518L69.8398 51.9242L69.4078 51.6722L68.4001 53.3998ZM68.3812 52.4906C67.9836 53.7672 67.3155 54.6842 66.3971 55.3094L67.5227 56.9626C68.8604 56.0518 69.7763 54.7368 70.2907 53.0854L68.3812 52.4906ZM66.3971 55.3094C65.4473 55.9561 64.3506 56.288 63.0719 56.288V58.288C64.7213 58.288 66.2165 57.8519 67.5227 56.9626L66.3971 55.3094ZM78.3624 56.856L78.0993 57.8208L78.1047 57.8222L78.3624 56.856ZM75.3384 55.38L75.9253 54.5704L75.8975 54.5502L75.8684 54.532L75.3384 55.38ZM74.9424 54.948L73.9722 55.1905L73.9917 55.2683L74.0232 55.3419L74.9424 54.948ZM74.9064 54.372L73.9362 54.1295L73.9216 54.188L73.9141 54.248L74.9064 54.372ZM75.1584 53.904L75.8655 54.6111L75.8655 54.6111L75.1584 53.904ZM75.6624 53.652L75.7864 54.6443L75.7864 54.6443L75.6624 53.652ZM76.2744 53.832L76.8291 52.9999L76.8291 52.9999L76.2744 53.832ZM79.0104 55.128L78.7495 56.0934L78.7495 56.0934L79.0104 55.128ZM85.0224 54.66L84.4387 53.848L84.4387 53.848L85.0224 54.66ZM85.4184 50.664L84.7494 51.4073L84.7688 51.4248L84.7892 51.4412L85.4184 50.664ZM83.0424 49.62L83.275 48.6474L83.2664 48.6454L83.0424 49.62ZM79.9104 48.9L80.1344 47.9254L80.1273 47.9238L79.9104 48.9ZM76.5624 47.28L75.8328 47.9639L75.8383 47.9697L75.8438 47.9754L76.5624 47.28ZM76.2744 41.628L75.4624 41.0444L75.4563 41.0529L75.4503 41.0615L76.2744 41.628ZM78.5784 39.864L78.9614 40.7878L78.9723 40.7831L78.5784 39.864ZM85.0584 39.684L85.3675 38.733L85.3675 38.733L85.0584 39.684ZM87.5784 41.124L86.9094 41.8673L86.9426 41.8972L86.9784 41.924L87.5784 41.124ZM87.9384 41.628L86.9682 41.8705L86.982 41.9258L87.002 41.9791L87.9384 41.628ZM87.9384 42.204L87.002 41.8529L86.9879 41.8906L86.9769 41.9293L87.9384 42.204ZM86.5344 42.6L85.93 43.3967L85.9543 43.4151L85.9797 43.4321L86.5344 42.6ZM84.3384 41.448L84.0133 42.3937L84.0266 42.3983L84.0401 42.4025L84.3384 41.448ZM78.7584 41.916L78.1584 41.116L78.1523 41.1206L78.1462 41.1253L78.7584 41.916ZM78.3264 46.056L77.6193 46.7631L77.6283 46.7722L77.6376 46.781L78.3264 46.056ZM80.5584 47.1L80.3267 48.0728L80.3343 48.0746L80.5584 47.1ZM83.6904 47.82L83.9152 46.8456L83.9144 46.8454L83.6904 47.82ZM87.1824 49.44L86.4984 50.1695L86.5046 50.1753L86.5109 50.181L87.1824 49.44ZM86.4984 55.956L87.0932 56.7598L87.0959 56.7579L86.4984 55.956ZM81.6024 56.288C80.6124 56.288 79.6189 56.1561 78.62 55.8898L78.1047 57.8222C79.2658 58.1319 80.4324 58.288 81.6024 58.288V56.288ZM78.6255 55.8912C77.6953 55.6375 76.7958 55.2015 75.9253 54.5704L74.7514 56.1896C75.8009 56.9505 76.9175 57.4985 78.0993 57.8208L78.6255 55.8912ZM75.8684 54.532C75.837 54.5124 75.8288 54.5022 75.8325 54.5063C75.8345 54.5084 75.839 54.5137 75.8446 54.5223C75.8503 54.5309 75.8562 54.5416 75.8615 54.5541L74.0232 55.3419C74.193 55.738 74.4851 56.0259 74.8084 56.228L75.8684 54.532ZM75.9125 54.7055C75.8938 54.6305 75.8903 54.5627 75.8987 54.496L73.9141 54.248C73.8744 54.5653 73.895 54.8815 73.9722 55.1905L75.9125 54.7055ZM75.8765 54.6145C75.8827 54.5899 75.8875 54.582 75.8858 54.5851C75.885 54.5866 75.883 54.5902 75.8793 54.5951C75.8756 54.6001 75.871 54.6056 75.8655 54.6111L74.4513 53.1969C74.1831 53.465 74.0208 53.7912 73.9362 54.1295L75.8765 54.6145ZM75.8655 54.6111C75.8679 54.6087 75.8595 54.6175 75.8396 54.6274C75.8191 54.6377 75.7995 54.6426 75.7864 54.6443L75.5383 52.6597C75.1136 52.7128 74.7437 52.9045 74.4513 53.1969L75.8655 54.6111ZM75.7864 54.6443C75.7613 54.6474 75.7381 54.6475 75.7181 54.6456C75.6984 54.6438 75.6844 54.6405 75.6772 54.6384C75.6639 54.6344 75.6778 54.6361 75.7197 54.6641L76.8291 52.9999C76.4822 52.7687 76.0394 52.5971 75.5383 52.6597L75.7864 54.6443ZM75.7197 54.6641C76.7264 55.3352 77.7367 55.8196 78.7495 56.0934L79.2713 54.1626C78.5081 53.9564 77.6944 53.5768 76.8291 52.9999L75.7197 54.6641ZM78.7495 56.0934C79.7195 56.3555 80.6951 56.488 81.6744 56.488V54.488C80.8776 54.488 80.0773 54.3805 79.2713 54.1626L78.7495 56.0934ZM81.6744 56.488C83.2406 56.488 84.5978 56.1967 85.606 55.472L84.4387 53.848C83.911 54.2273 83.0361 54.488 81.6744 54.488V56.488ZM85.606 55.472C86.6322 54.7345 87.1744 53.6899 87.1744 52.428H85.1744C85.1744 53.0381 84.9486 53.4815 84.4387 53.848L85.606 55.472ZM87.1744 52.428C87.1744 51.4202 86.8304 50.5204 86.0476 49.8868L84.7892 51.4412C85.0144 51.6236 85.1744 51.8998 85.1744 52.428H87.1744ZM86.0873 49.9207C85.4218 49.3217 84.4352 48.9249 83.2749 48.6474L82.8098 50.5926C83.8576 50.8431 84.455 51.1423 84.7494 51.4073L86.0873 49.9207ZM83.2664 48.6454L80.1344 47.9254L79.6863 49.8746L82.8183 50.5946L83.2664 48.6454ZM80.1273 47.9238C78.7175 47.6105 77.8129 47.1343 77.281 46.5846L75.8438 47.9754C76.7518 48.9137 78.0793 49.5175 79.6934 49.8762L80.1273 47.9238ZM77.2919 46.5961C76.7702 46.0396 76.4824 45.3122 76.4824 44.328H74.4824C74.4824 45.7438 74.9146 46.9844 75.8328 47.9639L77.2919 46.5961ZM76.4824 44.328C76.4824 43.4757 76.6972 42.7781 77.0984 42.1945L75.4503 41.0615C74.7955 42.0139 74.4824 43.1163 74.4824 44.328H76.4824ZM77.0864 42.2116C77.5165 41.6132 78.127 41.1337 78.9614 40.7877L78.1954 38.9403C77.0618 39.4103 76.1362 40.1068 75.4624 41.0444L77.0864 42.2116ZM78.9723 40.7831C79.8353 40.4133 80.8496 40.216 82.0344 40.216V38.216C80.6272 38.216 79.3374 38.4507 78.1845 38.9449L78.9723 40.7831ZM82.0344 40.216C82.9903 40.216 83.8936 40.3569 84.7493 40.635L85.3675 38.733C84.3031 38.387 83.1905 38.216 82.0344 38.216V40.216ZM84.7493 40.635C85.5818 40.9056 86.2979 41.3169 86.9094 41.8673L88.2473 40.3807C87.4189 39.6351 86.4549 39.0864 85.3675 38.733L84.7493 40.635ZM86.9784 41.924C87.0054 41.9442 87.007 41.951 86.9986 41.9392C86.9944 41.9334 86.9886 41.924 86.9827 41.9114C86.9768 41.8987 86.9718 41.8848 86.9682 41.8705L88.9085 41.3855C88.7937 40.9261 88.5137 40.5755 88.1784 40.324L86.9784 41.924ZM87.002 41.9791C86.9988 41.9705 86.9924 41.9479 86.9924 41.916C86.9924 41.8841 86.9988 41.8615 87.002 41.8529L88.8747 42.5551C89.0316 42.1367 89.0316 41.6953 88.8747 41.2769L87.002 41.9791ZM86.9769 41.9293C86.981 41.9148 86.9884 41.8982 86.9983 41.8833C87.0079 41.8689 87.0144 41.8643 87.0102 41.8678L88.2906 43.4042C88.577 43.1655 88.7927 42.854 88.8999 42.4787L86.9769 41.9293ZM87.0102 41.8678C87.0239 41.8564 87.0478 41.8408 87.08 41.8293C87.1119 41.8179 87.1365 41.816 87.1464 41.816V43.816C87.5661 43.816 87.9621 43.6779 88.2906 43.4042L87.0102 41.8678ZM87.1464 41.816C87.1771 41.816 87.1907 41.822 87.1822 41.819C87.1722 41.8155 87.1413 41.8028 87.0891 41.7679L85.9797 43.4321C86.3035 43.648 86.6986 43.816 87.1464 43.816V41.816ZM87.1388 41.8033C86.3585 41.2114 85.5241 40.7709 84.6366 40.4935L84.0401 42.4025C84.6886 42.6051 85.3182 42.9326 85.93 43.3967L87.1388 41.8033ZM84.6635 40.5023C83.7935 40.2033 82.9038 40.052 81.9984 40.052V42.052C82.6769 42.052 83.3472 42.1647 84.0133 42.3937L84.6635 40.5023ZM81.9984 40.052C80.4838 40.052 79.1619 40.3634 78.1584 41.116L79.3584 42.716C79.8909 42.3166 80.729 42.052 81.9984 42.052V40.052ZM78.1462 41.1253C77.1448 41.9005 76.6424 42.9791 76.6424 44.256H78.6424C78.6424 43.5649 78.8839 43.0835 79.3705 42.7067L78.1462 41.1253ZM76.6424 44.256C76.6424 45.2211 76.9467 46.0905 77.6193 46.7631L79.0335 45.3489C78.7941 45.1095 78.6424 44.7789 78.6424 44.256H76.6424ZM77.6376 46.781C78.2982 47.4086 79.2355 47.813 80.3268 48.0728L80.79 46.1272C79.8653 45.907 79.3145 45.6154 79.0151 45.331L77.6376 46.781ZM80.3343 48.0746L83.4663 48.7946L83.9144 46.8454L80.7824 46.1254L80.3343 48.0746ZM83.4655 48.7944C84.9361 49.1337 85.9094 49.6173 86.4984 50.1695L87.8663 48.7105C86.9194 47.8227 85.5647 47.2263 83.9152 46.8456L83.4655 48.7944ZM86.5109 50.181C87.0359 50.6569 87.3344 51.3173 87.3344 52.284H89.3344C89.3344 50.8507 88.8648 49.6151 87.8539 48.699L86.5109 50.181ZM87.3344 52.284C87.3344 53.5065 86.8697 54.4322 85.9009 55.1541L87.0959 56.7579C88.575 55.6558 89.3344 54.1335 89.3344 52.284H87.3344ZM85.9035 55.1522C84.9306 55.8721 83.5324 56.288 81.6024 56.288V58.288C83.8003 58.288 85.6662 57.8159 87.0932 56.7598L85.9035 55.1522ZM95.378 56.568L94.8924 57.4422L94.8924 57.4422L95.378 56.568ZM93.434 54.516L92.5302 54.9441L92.5348 54.9535L93.434 54.516ZM92.786 41.304H93.786V40.304H92.786V41.304ZM89.366 41.088L88.7075 41.8406L88.7358 41.8654L88.766 41.888L89.366 41.088ZM89.366 39.792L89.966 40.592L89.9961 40.5694L90.0245 40.5446L89.366 39.792ZM92.786 39.54V40.54H93.786V39.54H92.786ZM93.074 34.212L93.7325 34.9646L93.7576 34.9427L93.7811 34.9191L93.074 34.212ZM94.694 34.212L93.9869 34.9191L94.0104 34.9427L94.0355 34.9646L94.694 34.212ZM94.982 39.54H93.982V40.54H94.982V39.54ZM100.598 39.792L99.8909 40.4991L99.918 40.5263L99.9472 40.5513L100.598 39.792ZM100.598 41.088L101.249 41.8473L101.278 41.8223L101.305 41.7951L100.598 41.088ZM94.982 41.304V40.304H93.982V41.304H94.982ZM95.882 54.228L96.67 53.6124L96.67 53.6124L95.882 54.228ZM100.058 55.236L100.352 56.1918L100.373 56.1852L100.394 56.1777L100.058 55.236ZM101.318 55.272L100.55 55.9122L100.579 55.947L100.611 55.9791L101.318 55.272ZM101.39 56.532L100.496 56.0848L100.472 56.1317L100.454 56.1809L101.39 56.532ZM100.958 56.892L100.741 55.9158L100.677 55.9299L100.616 55.9522L100.958 56.892ZM99.878 57.144L99.722 56.1562L99.6969 56.1602L99.672 56.1655L99.878 57.144ZM98.618 56.288C97.4407 56.288 96.5399 56.0696 95.8636 55.6938L94.8924 57.4422C95.9441 58.0264 97.2033 58.288 98.618 58.288V56.288ZM95.8636 55.6938C95.1789 55.3134 94.6754 54.7818 94.3332 54.0785L92.5348 54.9535C93.0566 56.0262 93.8491 56.8626 94.8924 57.4422L95.8636 55.6938ZM94.3377 54.0879C93.9855 53.3443 93.786 52.3837 93.786 51.168H91.786C91.786 52.5923 92.0185 53.8637 92.5303 54.9441L94.3377 54.0879ZM93.786 51.168V41.304H91.786V51.168H93.786ZM92.786 40.304H90.122V42.304H92.786V40.304ZM90.122 40.304C90.0418 40.304 89.9953 40.2946 89.9737 40.2885C89.9543 40.2829 89.9557 40.2803 89.966 40.288L88.766 41.888C89.1767 42.1961 89.6587 42.304 90.122 42.304V40.304ZM90.0245 40.3354C90.0302 40.3404 90.0391 40.3494 90.0487 40.3626C90.0584 40.3759 90.0661 40.3899 90.0716 40.4029C90.0831 40.4303 90.078 40.4363 90.078 40.404H88.078C88.078 40.9389 88.2691 41.457 88.7075 41.8406L90.0245 40.3354ZM90.078 40.404C90.078 40.3942 90.0793 40.4267 90.0548 40.4788C90.0288 40.5341 89.992 40.5725 89.966 40.592L88.766 38.992C88.2945 39.3456 88.078 39.8616 88.078 40.404H90.078ZM90.0245 40.5446C90.0164 40.5516 90.0099 40.5535 90.0152 40.5517C90.0232 40.549 90.0552 40.54 90.122 40.54V38.54C89.6241 38.54 89.1201 38.6784 88.7075 39.0394L90.0245 40.5446ZM90.122 40.54H92.786V38.54H90.122V40.54ZM93.786 39.54V35.04H91.786V39.54H93.786ZM93.786 35.04C93.786 34.9851 93.7895 34.9445 93.7936 34.9162C93.7977 34.8879 93.802 34.8749 93.8025 34.8735C93.8028 34.8726 93.7989 34.884 93.787 34.9024C93.7746 34.9215 93.7565 34.9435 93.7325 34.9646L92.4155 33.4594C91.9162 33.8963 91.786 34.5145 91.786 35.04H93.786ZM93.7811 34.9191C93.7733 34.9269 93.765 34.9333 93.7578 34.9377C93.7509 34.9419 93.7486 34.9422 93.7535 34.9405C93.7646 34.9366 93.8089 34.924 93.902 34.924V32.924C93.3662 32.924 92.8014 33.0704 92.3669 33.5049L93.7811 34.9191ZM93.902 34.924C93.9757 34.924 94.0069 34.9346 94.0103 34.9358C94.0118 34.9363 94.0085 34.9353 94.0025 34.9315C93.9964 34.9276 93.9909 34.9231 93.9869 34.9191L95.4011 33.5049C94.9791 33.0829 94.4365 32.924 93.902 32.924V34.924ZM94.0355 34.9646C94.0115 34.9435 93.9934 34.9215 93.981 34.9024C93.969 34.884 93.9652 34.8726 93.9655 34.8735C93.966 34.8749 93.9703 34.8879 93.9744 34.9162C93.9785 34.9445 93.982 34.9851 93.982 35.04H95.982C95.982 34.5145 95.8518 33.8963 95.3525 33.4594L94.0355 34.9646ZM93.982 35.04V39.54H95.982V35.04H93.982ZM94.982 40.54H99.842V38.54H94.982V40.54ZM99.842 40.54C99.8847 40.54 99.9158 40.5427 99.9368 40.5457C99.9578 40.5487 99.9669 40.5517 99.9668 40.5517C99.9663 40.5515 99.9568 40.5483 99.9417 40.5392C99.9263 40.53 99.9085 40.5167 99.8909 40.4991L101.305 39.0849C100.883 38.6632 100.332 38.54 99.842 38.54V40.54ZM99.9472 40.5513C99.9117 40.5208 99.8806 40.4782 99.8623 40.4337C99.8458 40.3937 99.85 40.3775 99.85 40.404H101.85C101.85 39.9101 101.682 39.4037 101.249 39.0327L99.9472 40.5513ZM99.85 40.404C99.85 40.4514 99.8431 40.4604 99.8487 40.4453C99.8514 40.4377 99.8565 40.4266 99.8646 40.4139C99.8727 40.4011 99.8819 40.3898 99.8909 40.3809L101.305 41.7951C101.699 41.401 101.85 40.8972 101.85 40.404H99.85ZM99.9472 40.3287C99.9908 40.2913 100.021 40.2848 100.008 40.2885C99.9926 40.2929 99.9418 40.304 99.842 40.304V42.304C100.298 42.304 100.826 42.2096 101.249 41.8473L99.9472 40.3287ZM99.842 40.304H94.982V42.304H99.842V40.304ZM93.982 41.304V50.88H95.982V41.304H93.982ZM93.982 50.88C93.982 52.4602 94.3028 53.8309 95.094 54.8436L96.67 53.6124C96.2612 53.0891 95.982 52.2278 95.982 50.88H93.982ZM95.094 54.8436C95.9549 55.9456 97.3085 56.38 98.87 56.38V54.38C97.6475 54.38 97.0091 54.0464 96.67 53.6124L95.094 54.8436ZM98.87 56.38C99.4074 56.38 99.9114 56.3274 100.352 56.1918L99.7639 54.2802C99.5806 54.3366 99.2926 54.38 98.87 54.38V56.38ZM100.394 56.1777C100.683 56.0746 100.835 56.056 100.886 56.056V54.056C100.505 54.056 100.105 54.1574 99.7217 54.2943L100.394 56.1777ZM100.886 56.056C100.822 56.056 100.746 56.0409 100.673 56.0044C100.603 55.9694 100.564 55.9289 100.55 55.9122L102.086 54.6318C101.801 54.2896 101.387 54.056 100.886 54.056V56.056ZM100.611 55.9791C100.582 55.9506 100.562 55.922 100.548 55.8979C100.534 55.8742 100.528 55.8575 100.526 55.8521C100.525 55.847 100.527 55.852 100.529 55.8699C100.532 55.8878 100.534 55.916 100.534 55.956H102.534C102.534 55.517 102.436 54.9756 102.025 54.5649L100.611 55.9791ZM100.534 55.956C100.534 55.9752 100.53 56.0151 100.496 56.0848L102.284 56.9792C102.442 56.6649 102.534 56.3208 102.534 55.956H100.534ZM100.454 56.1809C100.473 56.1302 100.514 56.059 100.588 55.9978C100.659 55.9388 100.721 55.9202 100.741 55.9158L101.175 57.8682C101.69 57.7538 102.125 57.4204 102.326 56.8831L100.454 56.1809ZM100.616 55.9522C100.438 56.0169 100.15 56.0887 99.722 56.1562L100.034 58.1318C100.518 58.0553 100.95 57.9591 101.3 57.8318L100.616 55.9522ZM99.672 56.1655C99.2699 56.2501 98.92 56.288 98.618 56.288V58.288C99.084 58.288 99.5741 58.2299 100.084 58.1225L99.672 56.1655ZM19.8403 83.928L19.0877 84.5865L19.1096 84.6116L19.1332 84.6351L19.8403 83.928ZM19.8403 58.692L20.5474 59.3991L20.5474 59.3991L19.8403 58.692ZM21.7483 59.16L22.6331 58.694L22.6297 58.6875L22.6262 58.6811L21.7483 59.16ZM32.0443 78.708V79.708H33.7012L32.9291 78.242L32.0443 78.708ZM31.0363 78.708L30.1502 78.2445L29.3848 79.708H31.0363V78.708ZM41.2603 59.16L40.4166 58.6231L40.3938 58.6589L40.3742 58.6965L41.2603 59.16ZM41.7283 58.584L41.1471 57.7703L41.1167 57.7919L41.0881 57.8158L41.7283 58.584ZM43.1323 58.692L42.3797 59.3505L42.4236 59.4007L42.4738 59.4446L43.1323 58.692ZM43.1683 83.928L42.4157 83.2695L42.4157 83.2695L43.1683 83.928ZM41.6203 83.928L40.8677 84.5865L40.8896 84.6116L40.9132 84.6351L41.6203 83.928ZM41.3683 61.284V60.284H40.3683V61.284H41.3683ZM42.2323 61.284L43.1168 61.7506L43.8905 60.284H42.2323V61.284ZM32.5843 79.572L31.6998 79.1054L31.6947 79.115L31.6899 79.1248L32.5843 79.572ZM32.1883 80.112L32.8285 80.8802L32.8285 80.8802L32.1883 80.112ZM30.8923 80.112L30.1852 80.8191L30.2437 80.8776L30.3111 80.9257L30.8923 80.112ZM30.4963 79.572L29.6136 80.042L29.6178 80.0498L29.6221 80.0576L30.4963 79.572ZM20.7403 61.248V60.248H19.075L19.8576 61.718L20.7403 61.248ZM21.6043 61.248H22.6043V60.248H21.6043V61.248ZM21.3523 83.928L22.1049 84.5865L22.1049 84.5865L21.3523 83.928ZM20.5963 83.216C20.5431 83.216 20.5253 83.208 20.5293 83.2095C20.531 83.2101 20.5349 83.2119 20.5397 83.215C20.542 83.2165 20.5438 83.2179 20.5453 83.219C20.5467 83.2202 20.5474 83.2209 20.5474 83.2209L19.1332 84.6351C19.541 85.0429 20.062 85.216 20.5963 85.216V83.216ZM20.5929 83.2695C20.6069 83.2855 20.6082 83.2952 20.6042 83.2828C20.5992 83.2671 20.5883 83.2222 20.5883 83.136H18.5883C18.5883 83.6361 18.7154 84.1609 19.0877 84.5865L20.5929 83.2695ZM20.5883 83.136V59.484H18.5883V83.136H20.5883ZM20.5883 59.484C20.5883 59.3778 20.6011 59.3289 20.6042 59.3192C20.6053 59.3158 20.603 59.3241 20.5938 59.3399C20.5843 59.3562 20.5692 59.3773 20.5474 59.3991L19.1332 57.9849C18.7002 58.4179 18.5883 58.9933 18.5883 59.484H20.5883ZM20.5474 59.3991C20.551 59.3955 20.5512 59.3959 20.548 59.398C20.5446 59.4003 20.5402 59.4027 20.5357 59.4045C20.5312 59.4063 20.5295 59.4063 20.5322 59.4059C20.535 59.4054 20.5439 59.404 20.5603 59.404V57.404C20.0249 57.404 19.525 57.5931 19.1332 57.9849L20.5474 59.3991ZM20.5603 59.404C20.6547 59.404 20.7085 59.4133 20.7318 59.4191C20.7536 59.4246 20.7352 59.4236 20.6991 59.3977L21.8615 57.7703C21.4573 57.4815 20.9803 57.404 20.5603 57.404V59.404ZM20.6991 59.3977C20.6975 59.3966 20.7149 59.4088 20.7472 59.4486C20.7795 59.4884 20.8216 59.5494 20.8704 59.6389L22.6262 58.6811C22.4404 58.3405 22.1955 58.0088 21.8615 57.7703L20.6991 59.3977ZM20.8635 59.626L31.1595 79.174L32.9291 78.242L22.6331 58.694L20.8635 59.626ZM32.0443 77.708H31.0363V79.708H32.0443V77.708ZM31.9224 79.1715L42.1464 59.6235L40.3742 58.6965L30.1502 78.2445L31.9224 79.1715ZM42.104 59.6969C42.2483 59.47 42.3393 59.3766 42.3685 59.3522L41.0881 57.8158C40.8293 58.0314 40.6083 58.322 40.4166 58.6231L42.104 59.6969ZM42.3095 59.3977C42.2734 59.4236 42.255 59.4246 42.2768 59.4191C42.3001 59.4133 42.3539 59.404 42.4483 59.404V57.404C42.0283 57.404 41.5513 57.4815 41.1471 57.7703L42.3095 59.3977ZM42.4483 59.404C42.4806 59.404 42.4746 59.4091 42.4472 59.3976C42.4342 59.3921 42.4202 59.3844 42.4069 59.3747C42.3937 59.3651 42.3847 59.3562 42.3797 59.3505L43.8849 58.0335C43.5013 57.5951 42.9832 57.404 42.4483 57.404V59.404ZM42.4738 59.4446C42.4543 59.4275 42.4383 59.4087 42.4262 59.3907C42.4145 59.3731 42.4096 59.3607 42.4085 59.3577C42.4076 59.3552 42.4107 59.3629 42.4139 59.3841C42.4172 59.4053 42.4203 59.438 42.4203 59.484H44.4203C44.4203 58.9582 44.2776 58.3653 43.7908 57.9394L42.4738 59.4446ZM42.4203 59.484V83.136H44.4203V59.484H42.4203ZM42.4203 83.136C42.4203 83.2222 42.4094 83.2671 42.4044 83.2828C42.4004 83.2952 42.4017 83.2855 42.4157 83.2695L43.9209 84.5865C44.2932 84.1609 44.4203 83.6361 44.4203 83.136H42.4203ZM42.4157 83.2695C42.4288 83.2546 42.4443 83.2407 42.461 83.2293C42.4775 83.218 42.4907 83.212 42.4973 83.2095C42.5091 83.205 42.4875 83.216 42.4123 83.216V85.216C42.9397 85.216 43.5073 85.0591 43.9209 84.5865L42.4157 83.2695ZM42.4123 83.216C42.3386 83.216 42.3074 83.2054 42.304 83.2042C42.3025 83.2037 42.3058 83.2047 42.3118 83.2085C42.3179 83.2124 42.3234 83.2169 42.3274 83.2209L40.9132 84.6351C41.3352 85.0571 41.8778 85.216 42.4123 85.216V83.216ZM42.3729 83.2695C42.3869 83.2855 42.3882 83.2952 42.3842 83.2828C42.3792 83.2671 42.3683 83.2222 42.3683 83.136H40.3683C40.3683 83.6361 40.4954 84.1609 40.8677 84.5865L42.3729 83.2695ZM42.3683 83.136V61.284H40.3683V83.136H42.3683ZM41.3683 62.284H42.2323V60.284H41.3683V62.284ZM41.3478 60.8174L31.6998 79.1054L33.4688 80.0386L43.1168 61.7506L41.3478 60.8174ZM31.6899 79.1248C31.6502 79.2041 31.6157 79.2591 31.5889 79.2956C31.5621 79.3322 31.5472 79.3445 31.5481 79.3438L32.8285 80.8802C33.1138 80.6424 33.3216 80.3334 33.4787 80.0192L31.6899 79.1248ZM31.5481 79.3438C31.5703 79.3253 31.5916 79.3119 31.6096 79.3025C31.6274 79.2933 31.6401 79.2891 31.6451 79.2876C31.6537 79.2851 31.6348 79.292 31.5763 79.292V81.292C31.98 81.292 32.4437 81.2009 32.8285 80.8802L31.5481 79.3438ZM31.5763 79.292C31.5 79.292 31.4588 79.2839 31.4438 79.2799C31.4306 79.2765 31.4459 79.2785 31.4735 79.2983L30.3111 80.9257C30.7038 81.2063 31.1599 81.292 31.5763 81.292V79.292ZM31.5994 79.4049C31.5333 79.3388 31.4546 79.2378 31.3705 79.0864L29.6221 80.0576C29.778 80.3382 29.9633 80.5972 30.1852 80.8191L31.5994 79.4049ZM31.379 79.102L21.623 60.778L19.8576 61.718L29.6136 80.042L31.379 79.102ZM20.7403 62.248H21.6043V60.248H20.7403V62.248ZM20.6043 61.248V83.136H22.6043V61.248H20.6043ZM20.6043 83.136C20.6043 83.2222 20.5934 83.2671 20.5884 83.2828C20.5844 83.2952 20.5857 83.2855 20.5997 83.2695L22.1049 84.5865C22.4772 84.1609 22.6043 83.6361 22.6043 83.136H20.6043ZM20.5997 83.2695C20.6128 83.2546 20.6283 83.2407 20.645 83.2293C20.6615 83.218 20.6747 83.212 20.6813 83.2095C20.6931 83.205 20.6714 83.216 20.5963 83.216V85.216C21.1237 85.216 21.6913 85.0591 22.1049 84.5865L20.5997 83.2695ZM51.6871 83.208L51.2014 84.0822L51.6871 83.208ZM48.6991 80.112L49.5871 79.6521L49.5871 79.6521L48.6991 80.112ZM48.6991 70.572L49.5871 71.0319L49.5904 71.0255L48.6991 70.572ZM51.5791 67.368L51.055 66.5163L51.0476 66.5209L51.5791 67.368ZM58.9591 66.828L58.5416 67.7367L58.5562 67.7434L58.571 67.7496L58.9591 66.828ZM61.2631 68.52L60.4969 69.1626L60.5081 69.176L60.5198 69.189L61.2631 68.52ZM62.7391 71.184L61.7861 71.4872L61.7882 71.4936L62.7391 71.184ZM62.9551 75.468L62.2966 74.7154L62.2715 74.7373L62.248 74.7609L62.9551 75.468ZM49.2391 75.72H48.2391V76.72H49.2391V75.72ZM49.2391 74.1V73.1H48.2391V74.1H49.2391ZM61.8751 74.1L62.5057 74.8761L64.6917 73.1H61.8751V74.1ZM61.2991 74.568H60.2991V76.669L61.9297 75.3441L61.2991 74.568ZM60.6871 71.04L59.7633 71.423L59.7667 71.4311L60.6871 71.04ZM58.8511 68.772L58.2963 69.6041L58.3078 69.6116L58.8511 68.772ZM52.5511 68.916L53.1007 69.7514L53.1083 69.7464L53.1158 69.7413L52.5511 68.916ZM50.4991 71.436L51.4172 71.8324L51.4203 71.825L50.4991 71.436ZM51.5071 80.616L50.7652 81.2866L50.7717 81.2937L51.5071 80.616ZM58.8151 82.092L58.5404 81.1304L58.5329 81.1326L58.8151 82.092ZM61.2631 80.868L60.6896 80.0488L60.6822 80.0539L60.6749 80.0593L61.2631 80.868ZM62.5231 80.796L61.8829 81.5642L61.9115 81.5881L61.9418 81.6097L62.5231 80.796ZM62.8471 81.264L61.8769 81.5065L61.8964 81.5843L61.9279 81.6579L62.8471 81.264ZM62.8111 81.84L61.8973 81.4339L61.8852 81.461L61.8748 81.4889L62.8111 81.84ZM62.3431 82.38L61.7696 81.5608L61.7403 81.5813L61.7125 81.6039L62.3431 82.38ZM59.5711 83.82L59.8486 84.7807L59.8584 84.7779L59.8681 84.7749L59.5711 83.82ZM56.3311 83.288C54.6649 83.288 53.2915 82.9554 52.1727 82.3338L51.2014 84.0822C52.6747 84.9006 54.3973 85.288 56.3311 85.288V83.288ZM52.1727 82.3338C51.0524 81.7115 50.1946 80.8254 49.5871 79.6521L47.8111 80.5719C48.5955 82.0866 49.7297 83.2645 51.2014 84.0822L52.1727 82.3338ZM49.5871 79.6521C48.9792 78.4783 48.6551 77.0469 48.6551 75.324H46.6551C46.6551 77.2971 47.027 79.0577 47.8111 80.5719L49.5871 79.6521ZM48.6551 75.324C48.6551 73.6275 48.9783 72.2074 49.5871 71.0319L47.8111 70.1121C47.0279 71.6246 46.6551 73.3725 46.6551 75.324H48.6551ZM49.5904 71.0255C50.2096 69.8084 51.0495 68.8808 52.1106 68.2151L51.0476 66.5209C49.6606 67.3912 48.5806 68.5996 47.8078 70.1185L49.5904 71.0255ZM52.1032 68.2197C53.1784 67.558 54.4215 67.216 55.8631 67.216V65.216C54.0886 65.216 52.4757 65.642 51.055 66.5163L52.1032 68.2197ZM55.8631 67.216C56.9238 67.216 57.8084 67.3998 58.5416 67.7367L59.3766 65.9193C58.3337 65.4402 57.1544 65.216 55.8631 65.216V67.216ZM58.571 67.7496C59.3395 68.0732 59.977 68.5427 60.4969 69.1626L62.0293 67.8774C61.3012 67.0093 60.4027 66.3508 59.3471 65.9064L58.571 67.7496ZM60.5198 69.189C61.0599 69.7891 61.4871 70.5472 61.7862 71.4872L63.692 70.8808C63.3191 69.7088 62.7622 68.6909 62.0064 67.851L60.5198 69.189ZM61.7882 71.4936C62.0855 72.4067 62.2431 73.4752 62.2431 74.712H64.2431C64.2431 73.3088 64.0647 72.0253 63.69 70.8744L61.7882 71.4936ZM62.2431 74.712C62.2431 74.7872 62.2321 74.8088 62.2366 74.797C62.2391 74.7904 62.245 74.7772 62.2564 74.7607C62.2678 74.744 62.2817 74.7285 62.2966 74.7154L63.6136 76.2206C64.0862 75.807 64.2431 75.2394 64.2431 74.712H62.2431ZM62.248 74.7609C62.2612 74.7476 62.2758 74.7363 62.2901 74.7275C62.3042 74.7188 62.3146 74.7146 62.3187 74.7131C62.3259 74.7106 62.3032 74.72 62.2351 74.72V76.72C62.726 76.72 63.2534 76.5839 63.6622 76.1751L62.248 74.7609ZM62.2351 74.72H49.2391V76.72H62.2351V74.72ZM50.2391 75.72V74.1H48.2391V75.72H50.2391ZM49.2391 75.1H61.8751V73.1H49.2391V75.1ZM61.2445 73.3239L60.6685 73.7919L61.9297 75.3441L62.5057 74.8761L61.2445 73.3239ZM62.2991 74.568C62.2991 73.0841 62.0824 71.7665 61.6074 70.6489L59.7667 71.4311C60.1078 72.2335 60.2991 73.2679 60.2991 74.568H62.2991ZM61.6108 70.657C61.133 69.5046 60.3968 68.5811 59.3943 67.9324L58.3078 69.6116C58.9373 70.0189 59.4252 70.6074 59.7633 71.423L61.6108 70.657ZM59.4058 67.9399C58.4145 67.2791 57.2258 66.98 55.8991 66.98V68.98C56.9244 68.98 57.7037 69.2089 58.2964 69.6041L59.4058 67.9399ZM55.8991 66.98C54.4175 66.98 53.0949 67.3322 51.9864 68.0907L53.1158 69.7413C53.8313 69.2518 54.7407 68.98 55.8991 68.98V66.98ZM52.0015 68.0806C50.9118 68.7975 50.1048 69.7988 49.5778 71.047L51.4203 71.825C51.8053 70.9132 52.3664 70.2345 53.1007 69.7514L52.0015 68.0806ZM49.581 71.0396C49.0609 72.2441 48.8151 73.6077 48.8151 75.108H50.8151C50.8151 73.8243 51.0253 72.7399 51.4171 71.8324L49.581 71.0396ZM48.8151 75.108V75.288H50.8151V75.108H48.8151ZM48.8151 75.288C48.8151 77.7475 49.4181 79.7961 50.7652 81.2865L52.249 79.9455C51.34 78.9399 50.8151 77.4365 50.8151 75.288H48.8151ZM50.7717 81.2937C52.1306 82.7682 54.0076 83.452 56.2591 83.452V81.452C54.4306 81.452 53.1395 80.9118 52.2424 79.9383L50.7717 81.2937ZM56.2591 83.452C57.2384 83.452 58.1856 83.3195 59.0972 83.0514L58.5329 81.1326C57.8125 81.3445 57.0558 81.452 56.2591 81.452V83.452ZM59.0898 83.0535C60.0552 82.7777 60.9759 82.3134 61.8513 81.6767L60.6749 80.0593C59.9663 80.5746 59.255 80.9263 58.5404 81.1305L59.0898 83.0535ZM61.8365 81.6872C61.9671 81.5958 61.9978 81.616 61.9471 81.616V79.616C61.4644 79.616 61.0391 79.8042 60.6896 80.0488L61.8365 81.6872ZM61.9471 81.616C61.9848 81.616 61.9899 81.6208 61.9728 81.6155C61.964 81.6127 61.9504 81.6076 61.9339 81.5987C61.9172 81.5898 61.8998 81.5783 61.8829 81.5642L63.1633 80.0278C62.7941 79.7201 62.3541 79.616 61.9471 79.616V81.616ZM61.9418 81.6097C61.9403 81.6086 61.9251 81.597 61.9079 81.5722C61.8904 81.5469 61.8809 81.5223 61.8769 81.5065L63.8172 81.0215C63.7089 80.5883 63.4566 80.2339 63.1043 79.9823L61.9418 81.6097ZM61.9279 81.6579C61.899 81.5905 61.8908 81.5234 61.894 81.4716C61.8969 81.4253 61.9076 81.4105 61.8973 81.4339L63.7249 82.2461C63.8989 81.8546 63.9778 81.3636 63.7662 80.8701L61.9279 81.6579ZM61.8748 81.4889C61.8866 81.4573 61.897 81.4496 61.8844 81.4641C61.8708 81.4798 61.8371 81.5135 61.7696 81.5608L62.9165 83.1992C63.254 82.963 63.5801 82.6373 63.7474 82.1911L61.8748 81.4889ZM61.7125 81.6039C61.0564 82.137 60.2497 82.5616 59.274 82.8651L59.8681 84.7749C61.0525 84.4064 62.0938 83.871 62.9737 83.1561L61.7125 81.6039ZM59.2935 82.8593C58.3 83.1463 57.3134 83.288 56.3311 83.288V85.288C57.5088 85.288 58.6821 85.1177 59.8486 84.7807L59.2935 82.8593ZM67.1795 83.928L66.4723 84.6351L66.4723 84.6351L67.1795 83.928ZM67.1795 66.576L66.4723 65.8689L66.4723 65.8689L67.1795 66.576ZM68.7635 66.576L68.0109 67.2345L68.0328 67.2596L68.0563 67.2831L68.7635 66.576ZM69.0515 70.86L68.5146 71.7037L70.0515 72.6817V70.86H69.0515ZM68.6555 70.608L67.699 70.3162L67.4771 71.0434L68.1186 71.4517L68.6555 70.608ZM70.8515 67.368L71.4363 68.1792L71.4424 68.1748L71.4485 68.1702L70.8515 67.368ZM78.2315 67.332L77.5993 68.1069L77.6092 68.1148L78.2315 67.332ZM80.0675 70.68V71.68H81.2796L81.0492 70.49L80.0675 70.68ZM79.5275 70.68L78.5706 70.3895L78.1788 71.68H79.5275V70.68ZM81.7955 67.44L81.2093 66.6297L81.2011 66.6358L81.7955 67.44ZM88.9595 66.972L88.4449 67.8296L88.4556 67.8358L88.9595 66.972ZM90.9035 69.24L89.9843 69.6339L89.9878 69.642L90.9035 69.24ZM91.2635 83.928L91.9706 84.6351L91.9706 84.6351L91.2635 83.928ZM89.6435 83.928L88.9363 84.6351L88.9363 84.6351L89.6435 83.928ZM88.4195 69.348L87.6138 69.9404L87.6237 69.9538L87.634 69.9669L88.4195 69.348ZM81.6875 69.744L82.4443 70.3977L82.4515 70.3892L81.6875 69.744ZM80.0315 83.928L80.7386 84.6351L80.7386 84.6351L80.0315 83.928ZM78.4115 83.928L77.7043 84.6351L77.7043 84.6351L78.4115 83.928ZM77.1875 69.348L76.3818 69.9404L76.3917 69.9538L76.402 69.9669L77.1875 69.348ZM70.4555 69.744L71.2123 70.3977L71.2195 70.3892L70.4555 69.744ZM68.0075 83.216C67.9143 83.216 67.8701 83.2034 67.859 83.1995C67.854 83.1978 67.8564 83.1981 67.8633 83.2023C67.8704 83.2067 67.8787 83.2131 67.8866 83.2209L66.4723 84.6351C66.9069 85.0696 67.4717 85.216 68.0075 85.216V83.216ZM67.8866 83.2209C67.8944 83.2287 67.9007 83.237 67.9051 83.2442C67.9094 83.2511 67.9097 83.2534 67.9079 83.2485C67.9041 83.2374 67.8915 83.1931 67.8915 83.1H65.8915C65.8915 83.6358 66.0378 84.2006 66.4723 84.6351L67.8866 83.2209ZM67.8915 83.1V67.44H65.8915V83.1H67.8915ZM67.8915 67.44C67.8915 67.3283 67.9058 67.2714 67.9121 67.2522C67.9169 67.2379 67.9127 67.2569 67.8866 67.2831L66.4723 65.8689C66.0267 66.3146 65.8915 66.9019 65.8915 67.44H67.8915ZM67.8866 67.2831C67.8787 67.2909 67.8704 67.2973 67.8633 67.3017C67.8564 67.3059 67.854 67.3062 67.859 67.3045C67.8701 67.3006 67.9143 67.288 68.0075 67.288V65.288C67.4717 65.288 66.9069 65.4344 66.4723 65.8689L67.8866 67.2831ZM68.0075 67.288C68.0826 67.288 68.1043 67.299 68.0925 67.2945C68.0859 67.292 68.0727 67.286 68.0562 67.2747C68.0395 67.2633 68.0239 67.2494 68.0109 67.2345L69.516 65.9175C69.1025 65.4449 68.5349 65.288 68.0075 65.288V67.288ZM68.0563 67.2831C68.0302 67.2569 68.026 67.2379 68.0308 67.2522C68.0371 67.2714 68.0515 67.3283 68.0515 67.44H70.0515C70.0515 66.9019 69.9162 66.3146 69.4706 65.8689L68.0563 67.2831ZM68.0515 67.44V70.86H70.0515V67.44H68.0515ZM69.5883 70.0163L69.1923 69.7643L68.1186 71.4517L68.5146 71.7037L69.5883 70.0163ZM69.6119 70.8998C69.991 69.6573 70.6096 68.7752 71.4363 68.1792L70.2667 66.5568C69.0293 67.4488 68.1839 68.7267 67.699 70.3162L69.6119 70.8998ZM71.4485 68.1702C72.2875 67.5459 73.3076 67.216 74.5595 67.216V65.216C72.9313 65.216 71.4794 65.6541 70.2544 66.5658L71.4485 68.1702ZM74.5595 67.216C75.9361 67.216 76.914 67.5478 77.5993 68.1069L78.8636 66.5571C77.7249 65.6282 76.2548 65.216 74.5595 65.216V67.216ZM77.6092 68.1148C78.3129 68.6742 78.8305 69.5518 79.0857 70.87L81.0492 70.49C80.7284 68.8322 80.022 67.4778 78.8537 66.5492L77.6092 68.1148ZM80.0675 69.68H79.5275V71.68H80.0675V69.68ZM80.4843 70.9705C80.8314 69.8271 81.463 68.9292 82.3898 68.2442L81.2011 66.6358C79.9199 67.5828 79.0395 68.8449 78.5706 70.3895L80.4843 70.9705ZM82.3816 68.2502C83.3242 67.5683 84.4348 67.216 85.7555 67.216V65.216C84.0521 65.216 82.5227 65.6797 81.2093 66.6298L82.3816 68.2502ZM85.7555 67.216C86.9272 67.216 87.8029 67.4442 88.445 67.8295L89.474 66.1145C88.4361 65.4918 87.1758 65.216 85.7555 65.216V67.216ZM88.4556 67.8358C89.1164 68.2212 89.6282 68.803 89.9843 69.6339L91.8226 68.8461C91.3147 67.661 90.5305 66.7308 89.4633 66.1082L88.4556 67.8358ZM89.9878 69.642C90.3464 70.4588 90.5515 71.558 90.5515 72.984H92.5515C92.5515 71.386 92.3245 69.9892 91.8191 68.838L89.9878 69.642ZM90.5515 72.984V83.1H92.5515V72.984H90.5515ZM90.5515 83.1C90.5515 83.1931 90.5388 83.2374 90.535 83.2485C90.5332 83.2534 90.5335 83.2511 90.5378 83.2442C90.5422 83.237 90.5485 83.2287 90.5563 83.2209L91.9706 84.6351C92.4051 84.2006 92.5515 83.6358 92.5515 83.1H90.5515ZM90.5563 83.2209C90.5642 83.2131 90.5725 83.2067 90.5796 83.2023C90.5865 83.1981 90.5889 83.1978 90.5839 83.1995C90.5728 83.2034 90.5286 83.216 90.4355 83.216V85.216C90.9712 85.216 91.536 85.0696 91.9706 84.6351L90.5563 83.2209ZM90.4355 83.216C90.3618 83.216 90.3305 83.2054 90.3272 83.2042C90.3257 83.2037 90.329 83.2047 90.3349 83.2085C90.341 83.2124 90.3465 83.2169 90.3506 83.2209L88.9363 84.6351C89.3583 85.0571 89.901 85.216 90.4355 85.216V83.216ZM90.3506 83.2209C90.3584 83.2287 90.3647 83.237 90.3691 83.2442C90.3734 83.2511 90.3737 83.2534 90.372 83.2485C90.3681 83.2374 90.3555 83.1931 90.3555 83.1H88.3555C88.3555 83.6358 88.5018 84.2006 88.9363 84.6351L90.3506 83.2209ZM90.3555 83.1V73.164H88.3555V83.1H90.3555ZM90.3555 73.164C90.3555 71.3363 90.0382 69.7867 89.2049 68.7291L87.634 69.9669C88.0487 70.4933 88.3555 71.4877 88.3555 73.164H90.3555ZM89.2251 68.7556C88.3657 67.5869 86.975 67.124 85.3595 67.124V69.124C86.6239 69.124 87.2732 69.4771 87.6138 69.9404L89.2251 68.7556ZM85.3595 67.124C83.5579 67.124 82.0433 67.7726 80.9234 69.0988L82.4515 70.3892C83.1556 69.5554 84.089 69.124 85.3595 69.124V67.124ZM80.9306 69.0904C79.8188 70.3777 79.3195 72.0751 79.3195 74.064H81.3195C81.3195 72.4049 81.7321 71.2223 82.4443 70.3976L80.9306 69.0904ZM79.3195 74.064V83.1H81.3195V74.064H79.3195ZM79.3195 83.1C79.3195 83.1931 79.3068 83.2374 79.303 83.2485C79.3012 83.2534 79.3015 83.2511 79.3058 83.2442C79.3102 83.237 79.3165 83.2287 79.3243 83.2209L80.7386 84.6351C81.1731 84.2006 81.3195 83.6358 81.3195 83.1H79.3195ZM79.3243 83.2209C79.3284 83.2169 79.3339 83.2124 79.34 83.2085C79.346 83.2047 79.3492 83.2037 79.3477 83.2042C79.3444 83.2054 79.3131 83.216 79.2395 83.216V85.216C79.7739 85.216 80.3166 85.0571 80.7386 84.6351L79.3243 83.2209ZM79.2395 83.216C79.1463 83.216 79.1021 83.2034 79.091 83.1995C79.086 83.1978 79.0884 83.1981 79.0953 83.2023C79.1024 83.2067 79.1107 83.2131 79.1186 83.2209L77.7043 84.6351C78.1389 85.0696 78.7037 85.216 79.2395 85.216V83.216ZM79.1186 83.2209C79.1264 83.2287 79.1327 83.237 79.1371 83.2442C79.1414 83.2511 79.1417 83.2534 79.14 83.2485C79.1361 83.2374 79.1235 83.1931 79.1235 83.1H77.1235C77.1235 83.6358 77.2698 84.2006 77.7043 84.6351L79.1186 83.2209ZM79.1235 83.1V73.164H77.1235V83.1H79.1235ZM79.1235 73.164C79.1235 71.3363 78.8062 69.7867 77.9729 68.7291L76.402 69.9669C76.8167 70.4933 77.1235 71.4877 77.1235 73.164H79.1235ZM77.9931 68.7556C77.1367 67.5909 75.7621 67.124 74.1635 67.124V69.124C75.3968 69.124 76.0382 69.4731 76.3818 69.9404L77.9931 68.7556ZM74.1635 67.124C72.3434 67.124 70.8146 67.7688 69.6914 69.0988L71.2195 70.3892C71.9203 69.5592 72.8635 69.124 74.1635 69.124V67.124ZM69.6986 69.0904C68.5868 70.3777 68.0875 72.0751 68.0875 74.064H70.0875C70.0875 72.4049 70.5001 71.2223 71.2123 70.3976L69.6986 69.0904ZM68.0875 74.064V83.1H70.0875V74.064H68.0875ZM68.0875 83.1C68.0875 83.2084 68.074 83.2635 68.0682 83.2812C68.0639 83.2946 68.0691 83.2723 68.0989 83.2416C68.1293 83.2102 68.1561 83.2002 68.1543 83.2008C68.1473 83.2032 68.1042 83.216 68.0075 83.216V85.216C68.5301 85.216 69.1037 85.0792 69.5361 84.6324C69.9625 84.1918 70.0875 83.6181 70.0875 83.1H68.0875ZM99.3519 83.208L98.8663 84.0822L99.3519 83.208ZM96.3639 80.112L97.2519 79.6521L97.2519 79.6521L96.3639 80.112ZM96.3639 70.572L97.2519 71.0319L97.2552 71.0255L96.3639 70.572ZM99.2439 67.368L98.7198 66.5163L98.7124 66.5209L99.2439 67.368ZM106.624 66.828L106.206 67.7367L106.221 67.7434L106.236 67.7496L106.624 66.828ZM108.928 68.52L108.162 69.1626L108.173 69.176L108.185 69.189L108.928 68.52ZM110.404 71.184L109.451 71.4872L109.453 71.4936L110.404 71.184ZM110.62 75.468L109.961 74.7154L109.936 74.7373L109.913 74.7609L110.62 75.468ZM96.9039 75.72H95.9039V76.72H96.9039V75.72ZM96.9039 74.1V73.1H95.9039V74.1H96.9039ZM109.54 74.1L110.171 74.8761L112.357 73.1H109.54V74.1ZM108.964 74.568H107.964V76.669L109.595 75.3441L108.964 74.568ZM108.352 71.04L107.428 71.423L107.432 71.4311L108.352 71.04ZM106.516 68.772L105.961 69.6041L105.973 69.6116L106.516 68.772ZM100.216 68.916L100.766 69.7514L100.773 69.7464L100.781 69.7413L100.216 68.916ZM98.1639 71.436L99.082 71.8324L99.0852 71.825L98.1639 71.436ZM99.1719 80.616L98.43 81.2866L98.4366 81.2937L99.1719 80.616ZM106.48 82.092L106.205 81.1304L106.198 81.1326L106.48 82.092ZM108.928 80.868L108.354 80.0488L108.347 80.0539L108.34 80.0593L108.928 80.868ZM110.188 80.796L109.548 81.5642L109.576 81.5881L109.607 81.6097L110.188 80.796ZM110.512 81.264L109.542 81.5065L109.561 81.5843L109.593 81.6579L110.512 81.264ZM110.476 81.84L109.562 81.4339L109.55 81.461L109.54 81.4889L110.476 81.84ZM110.008 82.38L109.434 81.5608L109.405 81.5813L109.377 81.6039L110.008 82.38ZM107.236 83.82L107.513 84.7807L107.523 84.7779L107.533 84.7749L107.236 83.82ZM103.996 83.288C102.33 83.288 100.956 82.9554 99.8376 82.3338L98.8663 84.0822C100.34 84.9006 102.062 85.288 103.996 85.288V83.288ZM99.8376 82.3338C98.7173 81.7115 97.8595 80.8254 97.2519 79.6521L95.4759 80.5719C96.2604 82.0866 97.3946 83.2645 98.8663 84.0822L99.8376 82.3338ZM97.2519 79.6521C96.644 78.4783 96.3199 77.0469 96.3199 75.324H94.3199C94.3199 77.2971 94.6918 79.0577 95.4759 80.5719L97.2519 79.6521ZM96.3199 75.324C96.3199 73.6275 96.6431 72.2074 97.2519 71.0319L95.4759 70.1121C94.6927 71.6246 94.3199 73.3725 94.3199 75.324H96.3199ZM97.2552 71.0255C97.8744 69.8084 98.7144 68.8808 99.7754 68.2151L98.7124 66.5209C97.3255 67.3912 96.2454 68.5996 95.4727 70.1185L97.2552 71.0255ZM99.768 68.2197C100.843 67.558 102.086 67.216 103.528 67.216V65.216C101.753 65.216 100.141 65.642 98.7198 66.5163L99.768 68.2197ZM103.528 67.216C104.589 67.216 105.473 67.3998 106.206 67.7367L107.041 65.9193C105.999 65.4402 104.819 65.216 103.528 65.216V67.216ZM106.236 67.7496C107.004 68.0732 107.642 68.5427 108.162 69.1626L109.694 67.8774C108.966 67.0093 108.068 66.3508 107.012 65.9064L106.236 67.7496ZM108.185 69.189C108.725 69.7891 109.152 70.5472 109.451 71.4872L111.357 70.8808C110.984 69.7088 110.427 68.6909 109.671 67.851L108.185 69.189ZM109.453 71.4936C109.75 72.4067 109.908 73.4752 109.908 74.712H111.908C111.908 73.3088 111.73 72.0253 111.355 70.8744L109.453 71.4936ZM109.908 74.712C109.908 74.7872 109.897 74.8088 109.901 74.797C109.904 74.7904 109.91 74.7772 109.921 74.7607C109.933 74.744 109.947 74.7285 109.961 74.7154L111.278 76.2206C111.751 75.807 111.908 75.2394 111.908 74.712H109.908ZM109.913 74.7609C109.926 74.7476 109.941 74.7363 109.955 74.7275C109.969 74.7188 109.979 74.7146 109.984 74.7131C109.991 74.7106 109.968 74.72 109.9 74.72V76.72C110.391 76.72 110.918 76.5839 111.327 76.1751L109.913 74.7609ZM109.9 74.72H96.9039V76.72H109.9V74.72ZM97.9039 75.72V74.1H95.9039V75.72H97.9039ZM96.9039 75.1H109.54V73.1H96.9039V75.1ZM108.909 73.3239L108.333 73.7919L109.595 75.3441L110.171 74.8761L108.909 73.3239ZM109.964 74.568C109.964 73.0841 109.747 71.7665 109.272 70.6489L107.432 71.4311C107.773 72.2335 107.964 73.2679 107.964 74.568H109.964ZM109.276 70.657C108.798 69.5046 108.062 68.5811 107.059 67.9324L105.973 69.6116C106.602 70.0189 107.09 70.6074 107.428 71.423L109.276 70.657ZM107.071 67.9399C106.079 67.2791 104.891 66.98 103.564 66.98V68.98C104.589 68.98 105.368 69.2089 105.961 69.6041L107.071 67.9399ZM103.564 66.98C102.082 66.98 100.76 67.3322 99.6512 68.0907L100.781 69.7413C101.496 69.2518 102.406 68.98 103.564 68.98V66.98ZM99.6663 68.0806C98.5766 68.7975 97.7697 69.7988 97.2427 71.047L99.0852 71.825C99.4702 70.9132 100.031 70.2345 100.766 69.7514L99.6663 68.0806ZM97.2459 71.0396C96.7257 72.2441 96.4799 73.6077 96.4799 75.108H98.4799C98.4799 73.8243 98.6901 72.7399 99.082 71.8324L97.2459 71.0396ZM96.4799 75.108V75.288H98.4799V75.108H96.4799ZM96.4799 75.288C96.4799 77.7475 97.083 79.7961 98.4301 81.2865L99.9138 79.9455C99.0049 78.9399 98.4799 77.4365 98.4799 75.288H96.4799ZM98.4366 81.2937C99.7955 82.7682 101.672 83.452 103.924 83.452V81.452C102.095 81.452 100.804 80.9118 99.9073 79.9383L98.4366 81.2937ZM103.924 83.452C104.903 83.452 105.85 83.3195 106.762 83.0514L106.198 81.1326C105.477 81.3445 104.721 81.452 103.924 81.452V83.452ZM106.755 83.0535C107.72 82.7777 108.641 82.3134 109.516 81.6767L108.34 80.0593C107.631 80.5746 106.92 80.9263 106.205 81.1305L106.755 83.0535ZM109.501 81.6872C109.632 81.5958 109.663 81.616 109.612 81.616V79.616C109.129 79.616 108.704 79.8042 108.354 80.0488L109.501 81.6872ZM109.612 81.616C109.65 81.616 109.655 81.6208 109.638 81.6155C109.629 81.6127 109.615 81.6076 109.599 81.5987C109.582 81.5898 109.565 81.5783 109.548 81.5642L110.828 80.0278C110.459 79.7201 110.019 79.616 109.612 79.616V81.616ZM109.607 81.6097C109.605 81.6086 109.59 81.597 109.573 81.5722C109.555 81.5469 109.546 81.5223 109.542 81.5065L111.482 81.0215C111.374 80.5883 111.121 80.2339 110.769 79.9823L109.607 81.6097ZM109.593 81.6579C109.564 81.5905 109.556 81.5234 109.559 81.4716C109.562 81.4253 109.572 81.4105 109.562 81.4339L111.39 82.2461C111.564 81.8546 111.643 81.3636 111.431 80.8701L109.593 81.6579ZM109.54 81.4889C109.551 81.4573 109.562 81.4496 109.549 81.4641C109.536 81.4798 109.502 81.5135 109.434 81.5608L110.581 83.1992C110.919 82.963 111.245 82.6373 111.412 82.1911L109.54 81.4889ZM109.377 81.6039C108.721 82.137 107.915 82.5616 106.939 82.8651L107.533 84.7749C108.717 84.4064 109.759 83.871 110.639 83.1561L109.377 81.6039ZM106.958 82.8593C105.965 83.1463 104.978 83.288 103.996 83.288V85.288C105.174 85.288 106.347 85.1177 107.513 84.7807L106.958 82.8593ZM116.932 83.856L116.669 84.8208L116.675 84.8222L116.932 83.856ZM113.908 82.38L114.495 81.5704L114.467 81.5502L114.438 81.532L113.908 82.38ZM113.512 81.948L112.542 82.1905L112.562 82.2683L112.593 82.3419L113.512 81.948ZM113.476 81.372L112.506 81.1295L112.492 81.188L112.484 81.248L113.476 81.372ZM113.728 80.904L114.435 81.6111L114.435 81.6111L113.728 80.904ZM114.232 80.652L114.356 81.6443L114.356 81.6443L114.232 80.652ZM114.844 80.832L115.399 79.9999L115.399 79.9999L114.844 80.832ZM117.58 82.128L117.319 83.0934L117.319 83.0934L117.58 82.128ZM123.592 81.66L123.009 80.848L123.009 80.848L123.592 81.66ZM123.988 77.664L123.319 78.4073L123.339 78.4248L123.359 78.4412L123.988 77.664ZM121.612 76.62L121.845 75.6474L121.836 75.6454L121.612 76.62ZM118.48 75.9L118.704 74.9254L118.697 74.9238L118.48 75.9ZM115.132 74.28L114.403 74.9639L114.408 74.9697L114.414 74.9754L115.132 74.28ZM114.844 68.628L114.032 68.0444L114.026 68.0529L114.02 68.0615L114.844 68.628ZM117.148 66.864L117.531 67.7878L117.542 67.7831L117.148 66.864ZM123.628 66.684L123.937 65.733L123.937 65.733L123.628 66.684ZM126.148 68.124L125.479 68.8673L125.513 68.8972L125.548 68.924L126.148 68.124ZM126.508 68.628L125.538 68.8705L125.552 68.9258L125.572 68.9791L126.508 68.628ZM126.508 69.204L125.572 68.8529L125.558 68.8906L125.547 68.9293L126.508 69.204ZM125.104 69.6L124.5 70.3967L124.524 70.4151L124.55 70.4321L125.104 69.6ZM122.908 68.448L122.583 69.3937L122.597 69.3983L122.61 69.4025L122.908 68.448ZM117.328 68.916L116.728 68.116L116.722 68.1206L116.716 68.1253L117.328 68.916ZM116.896 73.056L116.189 73.7631L116.198 73.7722L116.208 73.781L116.896 73.056ZM119.128 74.1L118.897 75.0728L118.904 75.0746L119.128 74.1ZM122.26 74.82L122.485 73.8456L122.484 73.8454L122.26 74.82ZM125.752 76.44L125.068 77.1695L125.075 77.1753L125.081 77.181L125.752 76.44ZM125.068 82.956L125.663 83.7598L125.666 83.7579L125.068 82.956ZM120.172 83.288C119.182 83.288 118.189 83.1561 117.19 82.8898L116.675 84.8222C117.836 85.1319 119.002 85.288 120.172 85.288V83.288ZM117.195 82.8912C116.265 82.6375 115.366 82.2015 114.495 81.5704L113.321 83.1896C114.371 83.9505 115.487 84.4985 116.669 84.8208L117.195 82.8912ZM114.438 81.532C114.407 81.5124 114.399 81.5022 114.402 81.5063C114.404 81.5084 114.409 81.5137 114.415 81.5223C114.42 81.5309 114.426 81.5416 114.431 81.5541L112.593 82.3419C112.763 82.738 113.055 83.0259 113.378 83.228L114.438 81.532ZM114.482 81.7055C114.464 81.6305 114.46 81.5627 114.469 81.496L112.484 81.248C112.444 81.5653 112.465 81.8815 112.542 82.1905L114.482 81.7055ZM114.446 81.6145C114.453 81.5899 114.457 81.582 114.456 81.5851C114.455 81.5866 114.453 81.5902 114.449 81.5951C114.446 81.6001 114.441 81.6056 114.435 81.6111L113.021 80.1969C112.753 80.465 112.591 80.7912 112.506 81.1295L114.446 81.6145ZM114.435 81.6111C114.438 81.6087 114.429 81.6175 114.41 81.6274C114.389 81.6377 114.369 81.6426 114.356 81.6443L114.108 79.6597C113.683 79.7128 113.314 79.9045 113.021 80.1969L114.435 81.6111ZM114.356 81.6443C114.331 81.6474 114.308 81.6475 114.288 81.6456C114.268 81.6438 114.254 81.6405 114.247 81.6384C114.234 81.6344 114.248 81.6361 114.29 81.6641L115.399 79.9999C115.052 79.7687 114.609 79.5971 114.108 79.6597L114.356 81.6443ZM114.29 81.6641C115.296 82.3352 116.307 82.8196 117.319 83.0934L117.841 81.1626C117.078 80.9564 116.264 80.5768 115.399 79.9999L114.29 81.6641ZM117.319 83.0934C118.289 83.3555 119.265 83.488 120.244 83.488V81.488C119.448 81.488 118.647 81.3805 117.841 81.1626L117.319 83.0934ZM120.244 83.488C121.811 83.488 123.168 83.1967 124.176 82.472L123.009 80.848C122.481 81.2273 121.606 81.488 120.244 81.488V83.488ZM124.176 82.472C125.202 81.7345 125.744 80.6899 125.744 79.428H123.744C123.744 80.0381 123.519 80.4815 123.009 80.848L124.176 82.472ZM125.744 79.428C125.744 78.4202 125.4 77.5204 124.617 76.8868L123.359 78.4412C123.584 78.6236 123.744 78.8998 123.744 79.428H125.744ZM124.657 76.9207C123.992 76.3217 123.005 75.9249 121.845 75.6474L121.38 77.5926C122.427 77.8431 123.025 78.1423 123.319 78.4073L124.657 76.9207ZM121.836 75.6454L118.704 74.9254L118.256 76.8746L121.388 77.5946L121.836 75.6454ZM118.697 74.9238C117.287 74.6105 116.383 74.1343 115.851 73.5846L114.414 74.9754C115.322 75.9137 116.649 76.5175 118.263 76.8762L118.697 74.9238ZM115.862 73.5961C115.34 73.0396 115.052 72.3122 115.052 71.328H113.052C113.052 72.7438 113.484 73.9844 114.403 74.9639L115.862 73.5961ZM115.052 71.328C115.052 70.4757 115.267 69.7781 115.668 69.1945L114.02 68.0615C113.365 69.0139 113.052 70.1163 113.052 71.328H115.052ZM115.656 69.2116C116.086 68.6132 116.697 68.1337 117.531 67.7877L116.765 65.9403C115.632 66.4103 114.706 67.1068 114.032 68.0444L115.656 69.2116ZM117.542 67.7831C118.405 67.4133 119.419 67.216 120.604 67.216V65.216C119.197 65.216 117.907 65.4507 116.754 65.9449L117.542 67.7831ZM120.604 67.216C121.56 67.216 122.464 67.3569 123.319 67.635L123.937 65.733C122.873 65.387 121.76 65.216 120.604 65.216V67.216ZM123.319 67.635C124.152 67.9056 124.868 68.3169 125.479 68.8673L126.817 67.3807C125.989 66.6351 125.025 66.0864 123.937 65.733L123.319 67.635ZM125.548 68.924C125.575 68.9442 125.577 68.951 125.569 68.9392C125.564 68.9334 125.559 68.924 125.553 68.9114C125.547 68.8987 125.542 68.8848 125.538 68.8705L127.478 68.3855C127.364 67.9261 127.084 67.5755 126.748 67.324L125.548 68.924ZM125.572 68.9791C125.569 68.9705 125.562 68.9479 125.562 68.916C125.562 68.8841 125.569 68.8615 125.572 68.8529L127.445 69.5551C127.602 69.1367 127.602 68.6953 127.445 68.2769L125.572 68.9791ZM125.547 68.9293C125.551 68.9148 125.558 68.8982 125.568 68.8833C125.578 68.8689 125.584 68.8643 125.58 68.8678L126.86 70.4042C127.147 70.1655 127.363 69.854 127.47 69.4787L125.547 68.9293ZM125.58 68.8678C125.594 68.8564 125.618 68.8408 125.65 68.8293C125.682 68.8179 125.706 68.816 125.716 68.816V70.816C126.136 70.816 126.532 70.6779 126.86 70.4042L125.58 68.8678ZM125.716 68.816C125.747 68.816 125.761 68.822 125.752 68.819C125.742 68.8155 125.711 68.8028 125.659 68.7679L124.55 70.4321C124.873 70.648 125.269 70.816 125.716 70.816V68.816ZM125.709 68.8033C124.928 68.2114 124.094 67.7709 123.207 67.4935L122.61 69.4025C123.259 69.6051 123.888 69.9326 124.5 70.3967L125.709 68.8033ZM123.233 67.5023C122.363 67.2033 121.474 67.052 120.568 67.052V69.052C121.247 69.052 121.917 69.1647 122.583 69.3937L123.233 67.5023ZM120.568 67.052C119.054 67.052 117.732 67.3634 116.728 68.116L117.928 69.716C118.461 69.3166 119.299 69.052 120.568 69.052V67.052ZM116.716 68.1253C115.715 68.9005 115.212 69.9791 115.212 71.256H117.212C117.212 70.5649 117.454 70.0835 117.94 69.7067L116.716 68.1253ZM115.212 71.256C115.212 72.2211 115.517 73.0905 116.189 73.7631L117.603 72.3489C117.364 72.1095 117.212 71.7789 117.212 71.256H115.212ZM116.208 73.781C116.868 74.4086 117.805 74.813 118.897 75.0728L119.36 73.1272C118.435 72.907 117.884 72.6154 117.585 72.331L116.208 73.781ZM118.904 75.0746L122.036 75.7946L122.484 73.8454L119.352 73.1254L118.904 75.0746ZM122.035 75.7944C123.506 76.1337 124.479 76.6173 125.068 77.1695L126.436 75.7105C125.489 74.8227 124.135 74.2263 122.485 73.8456L122.035 75.7944ZM125.081 77.181C125.606 77.6569 125.904 78.3173 125.904 79.284H127.904C127.904 77.8507 127.435 76.6151 126.424 75.699L125.081 77.181ZM125.904 79.284C125.904 80.5065 125.44 81.4322 124.471 82.1541L125.666 83.7579C127.145 82.6558 127.904 81.1335 127.904 79.284H125.904ZM124.473 82.1522C123.501 82.8721 122.102 83.288 120.172 83.288V85.288C122.37 85.288 124.236 84.8159 125.663 83.7598L124.473 82.1522Z" fill="black"/>
</g>
</g>
<defs>
<filter id="filter0_d_101_8" x="15.5883" y="31.404" width="115.316" height="60.884" filterUnits="userSpaceOnUse" color-interpolation-filters="sRGB">
<feFlood flood-opacity="0" result="BackgroundImageFix"/>
<feColorMatrix in="SourceAlpha" type="matrix" values="0 0 0 0 0 0 0 0 0 0 0 0 0 0 0 0 0 0 127 0" result="hardAlpha"/>
<feOffset dy="4"/>
<feGaussianBlur stdDeviation="2"/>
<feComposite in2="hardAlpha" operator="out"/>
<feColorMatrix type="matrix" values="0 0 0 0 0 0 0 0 0 0 0 0 0 0 0 0 0 0 0.25 0"/>
<feBlend mode="normal" in2="BackgroundImageFix" result="effect1_dropShadow_101_8"/>
<feBlend mode="normal" in="SourceGraphic" in2="effect1_dropShadow_101_8" result="shape"/>
</filter>
<linearGradient id="paint0_linear_101_8" x1="20.5" y1="22" x2="68.5" y2="78.5" gradientUnits="userSpaceOnUse">
<stop stop-color="#8952FF"/>
<stop offset="0.417001" stop-color="#716FFF"/>
<stop offset="1" stop-color="#38B6FF"/>
</linearGradient>
<clipPath id="clip0_101_8">
<rect width="225" height="119" fill="white" transform="translate(-65)"/>
</clipPath>
</defs>
</svg>
